<svg width="200" height="200" viewBox="0 0 200 200" fill="none" xmlns="http://www.w3.org/2000/svg">
<path fill-rule="evenodd" clip-rule="evenodd" d="M181.034 63.3094C184.908 63.6414 187.122 64.5268 187.122 65.3016C187.122 66.4084 181.699 67.2939 174.283 67.4045C190.664 93.6359 192.324 127.836 175.722 156.502C151.815 197.897 98.7987 212.175 57.2934 188.268C54.6371 186.718 51.9808 185.058 49.5458 183.177C98.2453 177.31 150.708 160.487 150.708 126.619C150.708 107.692 122.927 101.273 108.871 94.7427C92.2685 86.995 82.6393 76.8124 106.657 69.9502C131.449 63.088 156.242 61.4278 181.034 63.3094Z" fill="#8BC34A"/>
<path fill-rule="evenodd" clip-rule="evenodd" d="M143.956 38.2955C152.479 43.1655 159.784 49.3636 165.982 56.3365C94.2608 54.6763 16.1202 75.8163 98.356 114.001C98.9094 114.222 99.3521 114.444 99.9055 114.665C107.542 118.207 115.179 121.749 115.179 126.84C115.179 129.275 114.183 131.157 112.744 132.706C109.977 135.473 105.55 137.465 100.791 138.794C74.3382 146.32 47.4428 147.869 20.2154 144.992C10.8075 143.553 4.16669 140.564 4.16669 138.019C4.16669 135.473 9.03664 133.924 16.3416 133.26C11.4716 112.452 14.1279 89.8727 25.6387 69.9502C49.5458 28.5556 102.562 14.2778 143.956 38.2955ZM46.004 29.4411L54.6371 24.4604L59.3964 32.6508L50.7633 37.6314L46.004 29.4411ZM146.059 24.4604L154.692 29.4411L149.933 37.6314L141.3 32.6508L146.059 24.4604ZM108.981 15.0526V23.0216H91.7151V15.0526H85.2956C83.082 15.0526 81.3111 13.2817 81.3111 11.0681V3.9845C81.3111 1.77089 83.082 0 85.2956 0H115.401C117.614 0 119.385 1.77089 119.385 3.9845V11.1787C119.385 13.3924 117.614 15.1633 115.401 15.1633H108.981V15.0526ZM100.348 32.2081C97.5812 32.2081 95.3676 34.4217 95.3676 37.1887C95.3676 39.9557 97.5812 42.1693 100.348 42.1693C103.115 42.1693 105.329 39.9557 105.329 37.1887C105.218 34.4217 103.005 32.2081 100.348 32.2081ZM59.6177 43.0548C57.2934 44.383 56.408 47.482 57.8468 49.8063C59.175 52.1306 62.274 53.016 64.5983 51.5772C66.9226 50.249 67.8081 47.15 66.3692 44.8257C64.9304 42.5014 61.942 41.7266 59.6177 43.0548ZM29.7339 72.8279C28.4058 75.1522 29.1805 78.2512 31.5048 79.5794C33.8291 80.9076 36.9282 80.1328 38.2563 77.8085C39.5845 75.4842 38.8097 72.3852 36.4854 71.057C34.1612 69.7288 31.1728 70.5036 29.7339 72.8279ZM18.8872 113.558C18.8872 116.325 21.1008 118.539 23.8678 118.539C26.6349 118.539 28.8485 116.325 28.8485 113.558C28.8485 110.791 26.6349 108.578 23.8678 108.578C21.1008 108.688 18.8872 110.902 18.8872 113.558ZM141.079 43.0548C138.754 41.7266 135.655 42.5014 134.327 44.8257C132.999 47.15 133.774 50.249 136.098 51.5772C138.422 52.9054 141.521 52.1306 142.85 49.8063C144.178 47.482 143.403 44.4936 141.079 43.0548Z" fill="#448AFF"/>
</svg>
