<svg width="100" height="100" viewBox="0 0 100 100" fill="none" xmlns="http://www.w3.org/2000/svg">
<circle cx="50" cy="50" r="50" fill="white"/>
<path d="M52.6264 37.4357C53.4515 38.8933 54.2766 40.351 55.0879 41.8087C55.5555 42.6337 56.023 43.4451 56.4769 44.2702C56.6144 44.5315 56.7794 44.669 57.0819 44.6277C57.2194 44.614 57.3569 44.6277 57.4945 44.6277C58.3471 44.6277 58.6221 44.834 58.8834 45.6316C59.681 48.0381 60.4648 50.4446 61.2624 52.8512C61.3311 53.0712 61.4137 53.2912 61.4962 53.5112C67.1618 52.5486 71.2598 56.7153 71.8648 60.772C72.5112 65.1725 69.9396 69.3117 65.7591 70.5769C61.5924 71.842 57.1507 69.8756 55.253 65.9564C53.3552 62.0509 54.5929 56.6466 59.4059 54.2126C59.2547 53.7725 59.1171 53.3187 58.9384 52.7824C57.797 53.8 56.6969 54.7626 55.5967 55.739C54.4966 56.7153 53.3965 57.6917 52.2139 58.7506C52.2139 57.7467 52.2001 56.8391 52.2276 55.9452C52.2276 55.8077 52.3926 55.6565 52.5164 55.5465C53.5203 54.6389 54.5379 53.745 55.5005 52.7411C54.4279 52.9474 53.3552 53.1674 52.2414 53.3737C52.2414 52.6174 52.2414 51.8885 52.2414 51.146C54.1666 50.7609 56.0643 50.3759 58.0308 49.9908C57.797 49.262 57.577 48.6019 57.3432 47.8731C56.8619 48.4782 56.3256 48.9182 55.5692 48.9457C54.5929 48.987 53.9053 48.5469 53.424 47.7081C51.8976 44.9853 50.3574 42.2762 48.831 39.5534C48.7485 39.4159 48.6797 39.2784 48.5972 39.1546C48.2397 38.577 47.6346 38.3983 47.0983 38.7008C46.5482 39.0033 46.3695 39.6497 46.6995 40.2547C47.3596 41.4511 48.0471 42.6475 48.721 43.8439C48.8035 43.9952 48.8722 44.1464 48.9685 44.3252C48.2259 44.8202 47.5108 45.3153 46.7683 45.7691C46.6307 45.8516 46.3695 45.7966 46.2044 45.7278C44.3342 44.9715 42.4778 44.1739 40.5938 43.4313C40.2775 43.3076 39.8787 43.2663 39.5624 43.3488C39.1086 43.4588 38.8749 43.8576 38.8611 44.3252C38.8474 44.834 39.1361 45.1915 39.6037 45.3978C40.9789 45.9616 42.354 46.5392 43.7292 47.103C45.3106 47.7631 46.892 48.4232 48.4734 49.0695C49.5186 49.4958 50.0136 50.2659 50.0136 51.3797C50.0136 54.5563 50.0274 57.733 50.0136 60.8958C50.0136 62.271 49.0785 63.2473 47.8134 63.2473C46.5482 63.2473 45.6269 62.2572 45.6131 60.8958C45.6131 58.3793 45.5856 55.849 45.6269 53.3325C45.6406 52.7686 45.4344 52.5349 44.9393 52.3423C42.5878 51.3935 40.25 50.4309 37.9123 49.4408C34.9832 48.2031 34.1718 44.6002 36.3308 42.345C36.5921 42.0699 36.8946 41.8362 37.1972 41.6299C40.0162 39.7322 42.8766 37.9032 45.6544 35.9505C47.7584 34.4653 50.1374 34.5066 51.9388 36.3218C51.21 33.3102 52.0076 31.2612 54.2491 30.3399C56.2706 29.501 58.5946 30.2574 59.7222 32.1413C60.8361 33.9978 60.4235 36.4043 58.7596 37.7795C57.2057 39.0859 54.6341 39.3334 52.6264 37.4357ZM60.121 56.4266C57.7145 57.5404 55.7205 60.8408 56.9719 64.4024C58.127 67.7166 61.7437 69.518 65.0853 68.5142C68.4407 67.4965 70.4209 64.0037 69.5821 60.607C68.7707 57.3479 65.4291 55.1064 62.225 55.7252C62.28 55.8902 62.3213 56.0415 62.3625 56.2065C62.8026 57.5404 63.2426 58.8743 63.6827 60.2082C63.8477 60.7308 64.0402 61.2396 64.1915 61.7759C64.3977 62.4635 64.1227 63.0273 63.5176 63.2336C62.9263 63.4398 62.3488 63.1373 62.1012 62.4772C62.0187 62.2297 61.9362 61.9822 61.8675 61.7484C61.2899 59.9607 60.7123 58.2005 60.121 56.4266Z" fill="#448AFF"/>
<path d="M41.1438 55.2715C41.5563 54.8452 41.9689 54.4601 42.3264 54.0201C42.5464 53.7725 42.739 53.8413 42.959 53.9513C43.179 54.0613 43.4816 54.0888 43.4128 54.4601C43.399 54.5426 43.4128 54.6251 43.4128 54.7214C43.4128 55.4915 43.6053 56.3441 42.684 56.7291C42.7115 56.8529 42.6977 56.8941 42.7252 56.9216C43.3028 57.5817 43.4953 58.3381 43.4265 59.2044C43.3715 59.8645 43.4128 60.5383 43.4265 61.2121C43.4265 62.0235 43.7016 62.7523 44.1004 63.4536C44.2241 63.6737 44.3066 64.0037 44.2516 64.2512C43.3715 68.2254 39.5761 71.1407 35.5332 71.0032C31.2839 70.852 27.6673 67.7716 27.076 63.6874C26.5259 59.892 27.8873 56.8666 31.0914 54.7764C34.0755 52.8237 37.8434 53.0025 40.855 55.1064C40.9238 55.1339 41.0063 55.1752 41.1438 55.2715ZM39.5074 56.8666C37.6096 55.2302 34.2405 55.189 31.9853 56.7704C29.4687 58.5306 28.4786 61.7347 29.5787 64.5538C30.6651 67.3728 33.5529 69.0918 36.5508 68.7205C39.4111 68.3629 41.8589 66.0114 42.1889 63.3024C42.0651 63.2886 41.9551 63.2749 41.8314 63.2749C39.8374 63.2749 37.8572 63.2749 35.8632 63.2749C35.3544 63.2749 34.9556 63.0961 34.7356 62.6148C34.5155 62.1197 34.6668 61.6797 35.0381 61.3084C35.3681 60.9784 35.6982 60.6483 36.0145 60.332C37.1833 59.1907 38.3522 58.0355 39.5074 56.8666ZM41.2676 58.5031C40.3324 59.4382 39.4799 60.3045 38.696 61.0746C39.7549 61.0746 40.965 61.0746 42.3402 61.0746C41.9414 60.1395 41.5838 59.2869 41.2676 58.5031Z" fill="#448AFF"/>
</svg>
