<svg width="160" height="50" viewBox="0 0 160 50" fill="none" xmlns="http://www.w3.org/2000/svg">
<g clip-path="url(#clip0_106_2289)">
<path fill-rule="evenodd" clip-rule="evenodd" d="M43.99 15.8883C44.9594 15.9758 45.503 16.1954 45.4964 16.3804C45.4871 16.6589 44.1438 16.8696 42.3075 16.913C46.371 23.4505 46.7936 31.9574 42.6756 39.0896C36.7229 49.4003 23.5387 52.9331 13.2279 46.9801C12.5547 46.5917 11.9109 46.1719 11.2965 45.7245C23.4068 44.2642 36.4753 40.0801 36.4753 31.6617C36.4753 26.9493 29.5704 25.3548 26.0647 23.7295C21.9351 21.8056 19.5482 19.2696 25.5059 17.5736C31.6685 15.8191 37.8239 15.3953 43.9901 15.8882L43.99 15.8883Z" fill="#8BC34A"/>
<path fill-rule="evenodd" clip-rule="evenodd" d="M34.7853 9.64194C36.9012 10.8637 38.7317 12.3901 40.2532 14.1338C22.3988 13.7359 2.96919 18.9902 23.421 28.4756C23.5543 28.5372 23.6683 28.5808 23.7989 28.6415C25.711 29.5287 27.5851 30.398 27.5851 31.6617C27.5851 32.264 27.3509 32.741 26.9763 33.1154H26.9657C26.2848 33.7961 25.1872 34.2878 23.9802 34.6312C17.4027 36.5038 10.7062 36.8857 3.93547 36.1751C1.64328 35.8323 -0.000183105 35.0932 -0.000183105 34.4717C-0.000183105 33.85 1.21675 33.4532 3.02923 33.2745C1.80637 28.1117 2.47474 22.49 5.33718 17.5324C11.2899 7.22159 24.4745 3.68892 34.7852 9.64194H34.7853ZM10.4005 7.44787L12.5413 6.21166L13.7229 8.25848L11.5823 9.49451L10.4005 7.44787ZM35.2953 6.21166L37.4361 7.44769L36.2544 9.49432L34.1138 8.2583L35.2953 6.21166ZM26.0642 3.88361V5.85769H21.7722V3.88361H20.1806C19.6382 3.88361 19.1943 3.43966 19.1943 2.89712V1.11458C19.1943 0.572036 19.6382 0.12809 20.1806 0.12809H27.656C28.1985 0.12809 28.6423 0.572036 28.6423 1.11458V2.89712C28.6423 3.43966 28.1985 3.88361 27.656 3.88361H26.0642Z" fill="#448AFF"/>
<path d="M63.8434 35.3095C60.5245 35.3095 57.8954 34.3213 55.9562 32.3448L58.1098 29.3242C59.7134 31.0023 61.6898 31.8414 64.0392 31.8414C65.0647 31.8414 65.8572 31.6456 66.4165 31.2541C66.9946 30.8438 67.2836 30.3497 67.2836 29.7717C67.2836 29.2683 67.0132 28.8487 66.4725 28.5131C65.9504 28.1775 65.2885 27.9351 64.4867 27.7859C63.7036 27.6368 62.8459 27.4223 61.9136 27.1427C60.9813 26.863 60.1143 26.546 59.3125 26.1917C58.5294 25.8374 57.8674 25.2781 57.3267 24.5136C56.8046 23.7491 56.5436 22.8168 56.5436 21.7167C56.5436 20.1132 57.1869 18.7707 58.4734 17.6892C59.76 16.5891 61.4754 16.0391 63.6197 16.0391C66.5843 16.0391 69.0083 16.9061 70.8915 18.6402L68.682 21.5489C67.209 20.1878 65.4003 19.5072 63.2561 19.5072C62.417 19.5072 61.7644 19.675 61.2983 20.0106C60.8321 20.3463 60.599 20.8031 60.599 21.3811C60.599 21.8286 60.8601 22.2108 61.3822 22.5278C61.9229 22.8261 62.5848 23.0499 63.3679 23.1991C64.1697 23.3482 65.0274 23.572 65.9411 23.8703C66.8734 24.15 67.7311 24.4763 68.5142 24.8492C69.316 25.2035 69.9779 25.7722 70.5 26.5553C71.0407 27.3198 71.3111 28.2428 71.3111 29.3242C71.3111 31.1142 70.6678 32.5593 69.3812 33.6594C68.1133 34.7595 66.2674 35.3095 63.8434 35.3095Z" fill="black"/>
<path d="M81.6206 35.3095C79.9238 35.3095 78.5347 34.6196 77.4532 33.2398V40.1201H73.9012V21.465H77.4532V23.1711C78.5161 21.81 79.9052 21.1294 81.6206 21.1294C83.3919 21.1294 84.8277 21.7633 85.9278 23.0313C87.0465 24.2805 87.6059 26.0053 87.6059 28.2055C87.6059 30.4057 87.0465 32.1397 85.9278 33.4076C84.8277 34.6756 83.3919 35.3095 81.6206 35.3095ZM80.5018 32.149C81.5273 32.149 82.3478 31.7855 82.9631 31.0583C83.597 30.3311 83.914 29.3801 83.914 28.2055C83.914 27.0494 83.597 26.1078 82.9631 25.3806C82.3478 24.6534 81.5273 24.2898 80.5018 24.2898C79.9238 24.2898 79.3458 24.439 78.7678 24.7373C78.1898 25.0357 77.7516 25.3993 77.4532 25.8281V30.6108C77.7516 31.0396 78.1898 31.4032 78.7678 31.7015C79.3644 31.9999 79.9425 32.149 80.5018 32.149Z" fill="black"/>
<path d="M101.674 33.2678C100.369 34.6289 98.6351 35.3095 96.4722 35.3095C94.3093 35.3095 92.5752 34.6289 91.27 33.2678C89.9834 31.888 89.3402 30.2006 89.3402 28.2055C89.3402 26.2104 89.9834 24.5322 91.27 23.1711C92.5752 21.81 94.3093 21.1294 96.4722 21.1294C98.6351 21.1294 100.369 21.81 101.674 23.1711C102.98 24.5322 103.632 26.2104 103.632 28.2055C103.632 30.2006 102.98 31.888 101.674 33.2678ZM93.955 31.0303C94.5703 31.7761 95.4094 32.149 96.4722 32.149C97.535 32.149 98.374 31.7761 98.9894 31.0303C99.6233 30.2658 99.9403 29.3242 99.9403 28.2055C99.9403 27.1054 99.6233 26.1824 98.9894 25.4366C98.374 24.6721 97.535 24.2898 96.4722 24.2898C95.4094 24.2898 94.5703 24.6721 93.955 25.4366C93.3397 26.1824 93.032 27.1054 93.032 28.2055C93.032 29.3242 93.3397 30.2658 93.955 31.0303Z" fill="black"/>
<path d="M109.819 34.9739H106.267V21.465H109.819V23.3109C110.323 22.677 110.966 22.1549 111.749 21.7447C112.532 21.3345 113.325 21.1294 114.127 21.1294V24.5975C113.884 24.5416 113.558 24.5136 113.148 24.5136C112.551 24.5136 111.917 24.6628 111.246 24.9611C110.575 25.2594 110.099 25.623 109.819 26.0519V34.9739Z" fill="black"/>
<path d="M120.877 35.3095C119.628 35.3095 118.677 34.9925 118.024 34.3586C117.371 33.7246 117.045 32.811 117.045 31.6176V24.5695H114.808V21.465H117.045V17.7731H120.625V21.465H123.366V24.5695H120.625V30.6667C120.625 31.0956 120.737 31.4498 120.961 31.7295C121.184 32.0092 121.483 32.149 121.856 32.149C122.415 32.149 122.825 32.0185 123.086 31.7575L123.842 34.4425C123.189 35.0205 122.201 35.3095 120.877 35.3095Z" fill="black"/>
<path d="M140.564 33.2119C139.147 34.6103 137.058 35.3095 134.299 35.3095C131.539 35.3095 129.442 34.6103 128.006 33.2119C126.589 31.7948 125.88 29.9022 125.88 27.5342V16.3188H129.908V27.3944C129.908 28.7369 130.29 29.809 131.054 30.6108C131.819 31.3939 132.9 31.7855 134.299 31.7855C135.697 31.7855 136.769 31.3939 137.515 30.6108C138.28 29.809 138.662 28.7369 138.662 27.3944V16.3188H142.717V27.5062C142.717 29.9116 141.999 31.8134 140.564 33.2119Z" fill="black"/>
<path d="M154.028 35.3095C152.331 35.3095 150.942 34.6196 149.86 33.2398V40.1201H146.308V21.465H149.86V23.1711C150.923 21.81 152.312 21.1294 154.028 21.1294C155.799 21.1294 157.235 21.7633 158.335 23.0313C159.454 24.2805 160.013 26.0053 160.013 28.2055C160.013 30.4057 159.454 32.1397 158.335 33.4076C157.235 34.6756 155.799 35.3095 154.028 35.3095ZM152.909 32.149C153.935 32.149 154.755 31.7855 155.37 31.0583C156.004 30.3311 156.321 29.3801 156.321 28.2055C156.321 27.0494 156.004 26.1078 155.37 25.3806C154.755 24.6534 153.935 24.2898 152.909 24.2898C152.331 24.2898 151.753 24.439 151.175 24.7373C150.597 25.0357 150.159 25.3993 149.86 25.8281V30.6108C150.159 31.0396 150.597 31.4032 151.175 31.7015C151.772 31.9999 152.35 32.149 152.909 32.149Z" fill="black"/>
<path fill-rule="evenodd" clip-rule="evenodd" d="M23.9182 8.12968C23.2396 8.12968 22.6893 8.67991 22.6893 9.35884C22.6893 10.0375 23.2395 10.5878 23.9182 10.5878C24.5975 10.5878 25.1476 10.0376 25.1476 9.35884C25.1476 8.68 24.5976 8.12968 23.9182 8.12968ZM13.7879 10.841C13.1998 11.1799 12.9985 11.9319 13.338 12.52C13.6772 13.1076 14.429 13.309 15.0167 12.9697C15.6047 12.63 15.8059 11.8788 15.467 11.2907C15.1273 10.7029 14.3757 10.5013 13.7879 10.841ZM6.36982 18.2539C6.03049 18.8418 6.23194 19.5936 6.82007 19.9329C7.40764 20.2721 8.1596 20.0708 8.49856 19.4831C8.83807 18.8951 8.63699 18.1433 8.04887 17.8042C7.46129 17.4647 6.70952 17.6661 6.36982 18.2539ZM3.65277 28.3831C3.65277 29.0616 4.20282 29.6117 4.88138 29.6117C5.5606 29.6117 6.11074 29.0617 6.11074 28.3831C6.11074 27.7041 5.56069 27.1536 4.88138 27.1536C4.20291 27.1536 3.65277 27.704 3.65277 28.3831ZM34.0475 10.847C33.4595 10.5077 32.7078 10.7091 32.3684 11.2969C32.0291 11.885 32.2304 12.6366 32.8183 12.9757C33.4062 13.3154 34.1578 13.114 34.497 12.5262C34.8367 11.9381 34.6352 11.1863 34.0475 10.847Z" fill="#FEFEFE"/>
</g>
<defs>
<clipPath id="clip0_106_2289">
<rect width="160" height="49.7439" fill="white" transform="translate(0 0.128075)"/>
</clipPath>
</defs>
</svg>
