<svg width="100" height="100" viewBox="0 0 100 100" fill="none" xmlns="http://www.w3.org/2000/svg">
<circle cx="50" cy="50" r="50" fill="white"/>
<g clip-path="url(#clip0_197_4778)">
<path d="M43.4873 74.0915C42.5718 73.8692 41.7609 73.4507 41.2508 72.6136C40.6361 71.5935 40.5969 70.521 41.1723 69.3569C40.9238 69.3569 40.7407 69.3569 40.5445 69.3569C37.5102 69.3177 38.3604 69.6839 36.1762 67.539C35.5484 66.9242 34.9075 66.2964 34.3059 65.6425C33.835 65.1324 33.7958 64.5177 34.0966 63.903C34.3843 63.3275 34.986 62.9613 35.6399 63.079C36.0192 63.1575 36.4116 63.3537 36.6862 63.6152C37.4971 64.3608 38.2557 65.1717 39.0535 65.9433C39.1712 66.061 39.3282 66.1918 39.4721 66.1918C40.3876 66.218 41.3031 66.2049 42.271 66.2049C42.2841 65.9956 42.3102 65.8125 42.3102 65.6294C42.3102 63.733 42.3364 61.8234 42.2841 59.927C42.2448 58.5537 42.4148 57.2327 42.8203 55.9248C43.3173 54.3161 43.7489 52.6943 44.1936 51.0725C44.259 50.824 44.2982 50.5493 44.2982 50.2877C44.3113 47.1357 44.2982 43.9967 44.3113 40.8447C44.3113 40.4785 44.1805 40.2954 43.8797 40.1253C41.8524 38.9613 39.8383 37.7973 37.811 36.6202C36.7909 36.0316 36.5424 35.4038 36.9086 34.2921C37.641 32.0294 38.3603 29.7668 39.1059 27.5041C39.4198 26.5362 40.1653 26.0523 41.0023 26.2485C41.9832 26.4708 42.4672 27.3864 42.1271 28.4327C41.5778 30.1722 41.0023 31.8986 40.453 33.6251C40.3745 33.8605 40.3091 34.0959 40.2176 34.3706C41.2901 34.9853 42.3756 35.5738 43.4089 36.2278C44.089 36.6594 44.7821 36.8425 45.6061 36.8163C49.6868 36.6856 53.7674 36.594 57.8481 36.4763C58.0835 36.4632 58.332 36.3717 58.5413 36.2539C60.1762 35.273 61.811 34.2659 63.4459 33.2719C64.1914 32.8272 64.9108 32.8796 65.4732 33.4027C66.2187 34.109 66.1271 35.2861 65.2508 35.8616C64.4138 36.4109 63.5636 36.9079 62.7135 37.4311C61.7456 38.0196 60.7909 38.6474 59.7969 39.1967C59.4045 39.4191 58.9336 39.5629 58.489 39.6022C57.0241 39.7068 55.5593 39.733 54.0944 39.7984C53.9767 39.7984 53.859 39.8245 53.6759 39.8376C53.6759 40.0207 53.6759 40.1907 53.6759 40.3608C53.6759 43.7482 53.6759 47.1226 53.689 50.5101C53.689 50.7847 53.7544 51.0725 53.8721 51.3079C55.8993 55.8202 57.9396 60.3324 59.9669 64.8316C60.0977 65.1324 60.2416 65.4463 60.2546 65.7602C60.2677 66.1787 60.4508 66.2311 60.8039 66.2311C61.8633 66.218 62.9227 66.2049 63.9822 66.2311C64.8454 66.2572 65.4732 66.885 65.5124 67.6959C65.5516 68.5984 64.9369 69.3177 64.0475 69.3569C63.2105 69.3962 62.3734 69.37 61.4841 69.37C61.5102 69.4877 61.5233 69.5662 61.5495 69.6316C62.3473 71.5935 61.3925 73.503 59.3653 74.0392C59.2868 74.0654 59.2214 74.0915 59.156 74.1177C58.8421 74.1177 58.5282 74.1177 58.2274 74.1177C58.1358 74.0915 58.0574 74.0523 57.9658 74.0262C56.5533 73.6207 55.677 72.6267 55.5854 71.1488C55.5462 70.5864 55.7293 69.9978 55.8078 69.4223C52.8257 69.4223 49.8045 69.4223 46.744 69.4223C47.3326 70.7564 47.2279 71.9727 46.2993 73.0714C45.8154 73.6469 45.1484 73.8823 44.4683 74.1177C44.1151 74.0915 43.8012 74.0915 43.4873 74.0915ZM55.9386 66.1787C55.5723 65.3678 55.2454 64.6093 54.9053 63.8638C53.4012 60.5417 51.8971 57.2065 50.38 53.8845C50.3146 53.7275 50.1315 53.5182 49.9876 53.5182C49.2944 53.479 48.5881 53.5052 47.8819 53.5052C47.4241 55.1662 46.9663 56.7749 46.5347 58.3967C46.4955 58.5406 46.5086 58.7106 46.5086 58.8545C46.5086 61.1302 46.4955 63.406 46.4955 65.6687C46.4955 65.8387 46.5086 65.9956 46.5217 66.1787C49.6737 66.1787 52.7604 66.1787 55.9386 66.1787ZM59.6792 70.9264C59.6792 70.3509 59.2083 69.8801 58.6459 69.8932C58.0966 69.8932 57.6127 70.3902 57.6127 70.9395C57.6127 71.5019 58.0966 71.9727 58.659 71.9727C59.2345 71.9597 59.6792 71.5019 59.6792 70.9264ZM43.9059 71.9597C44.4683 71.9597 44.9522 71.4888 44.9653 70.9395C44.9653 70.3902 44.4813 69.8932 43.932 69.8801C43.3696 69.867 42.8857 70.351 42.8857 70.9133C42.8726 71.4888 43.3435 71.9597 43.9059 71.9597Z" fill="#448AFF"/>
<path d="M49.032 28.145C51.0462 28.2104 52.6549 29.8453 52.6287 31.8071C52.5895 33.8213 50.9023 35.4823 48.9405 35.43C46.887 35.3777 45.2783 33.7036 45.3437 31.6894C45.4091 29.6753 47.0702 28.0796 49.032 28.145Z" fill="#448AFF"/>
</g>
<defs>
<clipPath id="clip0_197_4778">
<rect width="48" height="48.1308" fill="white" transform="translate(26 26)"/>
</clipPath>
</defs>
</svg>
