<svg width="60" height="60" viewBox="0 0 60 60" fill="none" xmlns="http://www.w3.org/2000/svg">
<circle cx="30" cy="30" r="30" fill="#448AFF"/>
<g clip-path="url(#clip0_197_4852)">
<path d="M15 23.8001C15.0935 23.2234 15.1481 22.639 15.2883 22.0858C16.5351 17.3247 19.5818 14.3559 24.3896 13.3351C29.0493 12.3455 33.9584 14.691 36.374 18.8754C40.3403 25.7481 36.3974 33.9923 28.8701 35.7611C26.6338 36.2832 24.4286 36.104 22.2935 35.2702C22.1299 35.2078 22.0208 35.2234 21.8727 35.3247C19.8701 36.665 17.7896 36.7975 15.6468 35.7066C15.1169 35.4338 14.9455 34.904 15.2494 34.4053C16.3091 32.6364 16.4727 30.7897 15.8649 28.826C15.561 27.8286 15.3429 26.8001 15.0935 25.7793C15.0545 25.6079 15.0312 25.4364 15 25.265C15 24.7741 15 24.2832 15 23.8001ZM17.2831 34.4598C17.361 34.4832 17.4545 34.5143 17.5481 34.5299C18.9273 34.8104 20.1506 34.4988 21.2026 33.5715C21.5844 33.2286 21.9662 33.1741 22.426 33.3923C24.1948 34.2104 26.0493 34.452 27.9662 34.1325C33.0623 33.2832 36.9896 28.452 36.0156 22.8962C35.1507 17.9871 30.4909 14.4027 25.5273 14.9559C22.0052 15.3455 19.4104 17.1767 17.7818 20.3247C16.9169 22.0078 16.574 23.8156 16.8779 25.6936C17.0182 26.5663 17.2831 27.4312 17.5481 28.2806C18 29.7845 18.1714 31.304 17.7896 32.8468C17.6571 33.3845 17.4545 33.9143 17.2831 34.4598Z" fill="white"/>
<path d="M40.8468 42.9923C40.5507 42.93 40.2624 42.8832 39.9663 42.8053C39.2728 42.6261 38.626 42.3456 38.0494 41.917C37.8702 41.7845 37.7377 41.7767 37.5273 41.8469C33.3195 43.3118 29.4624 42.6728 25.9637 39.8988C25.6208 39.6261 25.5039 39.2521 25.6286 38.8858C25.7533 38.5274 26.0104 38.3326 26.3845 38.2858C26.6728 38.2546 26.9065 38.3715 27.1247 38.5585C28.5351 39.743 30.1637 40.4598 31.9793 40.7248C33.8416 40.9975 35.6416 40.7637 37.3637 39.9923C37.8935 39.7508 38.2987 39.8209 38.7429 40.2027C39.865 41.1767 41.1663 41.4027 42.6078 41.0443C42.5922 40.9663 42.5845 40.9118 42.5611 40.8572C41.6572 38.7767 41.6884 36.704 42.4598 34.5689C43.6909 31.1559 43.1845 27.9611 40.9715 25.0546C40.8468 24.891 40.7221 24.6962 40.6754 24.5014C40.5819 24.0962 40.8 23.7066 41.1663 23.543C41.5559 23.3715 41.9455 23.465 42.2416 23.8079C43.0052 24.7196 43.6052 25.7248 44.0338 26.8235C45.1325 29.6676 45.1559 32.5274 44.0572 35.3871C43.3403 37.2495 43.5585 39.0417 44.5169 40.7715C44.6026 40.9274 44.6961 41.0754 44.7429 41.2391C44.8442 41.6443 44.6572 42.0183 44.2676 42.2365C43.613 42.6027 42.9195 42.8365 42.1793 42.93C42.1013 42.9378 42.0312 42.9611 41.9533 42.9845C41.5871 42.9923 41.213 42.9923 40.8468 42.9923Z" fill="white"/>
<path d="M21.3108 26.0286C20.5238 26.0364 19.9004 25.413 19.9004 24.6338C19.9004 23.8546 20.5316 23.2234 21.303 23.2234C22.0666 23.2234 22.69 23.8468 22.6978 24.6104C22.7056 25.3974 22.09 26.0208 21.3108 26.0286Z" fill="white"/>
<path d="M26.4866 26.0286C25.6995 26.0364 25.0762 25.4208 25.0762 24.6338C25.0762 23.8546 25.6995 23.2234 26.4788 23.2234C27.2346 23.2234 27.8658 23.8468 27.8814 24.6104C27.8969 25.3818 27.2658 26.0208 26.4866 26.0286Z" fill="white"/>
<path d="M33.0396 24.6338C33.0396 25.4208 32.4241 26.0364 31.637 26.0286C30.8578 26.0286 30.2267 25.3896 30.2344 24.6182C30.2422 23.8623 30.8734 23.2312 31.6293 23.2234C32.4085 23.2234 33.0396 23.8546 33.0396 24.6338Z" fill="white"/>
</g>
<defs>
<clipPath id="clip0_197_4852">
<rect width="29.9221" height="30" fill="white" transform="translate(15 13)"/>
</clipPath>
</defs>
</svg>
