<svg width="60" height="60" viewBox="0 0 60 60" fill="none" xmlns="http://www.w3.org/2000/svg">
<circle cx="30" cy="30" r="30" fill="#448AFF"/>
<g clip-path="url(#clip0_197_4837)">
<path d="M15 27.6257C15.1754 27.4503 15.3392 27.2573 15.5322 27.1052C17.2281 25.7777 18.9298 24.462 20.6257 23.1345C20.9181 22.9006 21.2105 22.807 21.5965 22.8772C22.6959 23.0818 23.807 23.2456 24.9064 23.4327C25.1053 23.4678 25.2982 23.5438 25.4737 23.6432C27.1462 24.5614 28.807 25.497 30.4795 26.4093C30.655 26.5087 30.8772 26.5614 31.0819 26.5614C32.8947 26.5731 34.7076 26.5672 36.5205 26.5672C36.5965 26.5672 36.6784 26.5672 36.7544 26.5672C37.1754 26.5848 37.4561 26.8421 37.4503 27.2046C37.4444 27.5555 37.1754 27.807 36.7602 27.807C34.7135 27.8128 32.6667 27.8128 30.6199 27.8011C30.4561 27.8011 30.2807 27.7251 30.1287 27.6432C28.6725 26.8421 27.2047 26.0526 25.7661 25.2105C25.076 24.807 24.3684 24.5614 23.5848 24.462C22.9181 24.3801 22.2573 24.2456 21.5965 24.1462C21.4854 24.1286 21.3392 24.1579 21.2573 24.228C19.6901 25.4327 18.1287 26.6491 16.5731 27.8713C16.5029 27.9239 16.4795 28.0351 16.4327 28.1228C16.462 28.1462 16.4912 28.1696 16.5205 28.193C16.6082 28.1462 16.7018 28.0994 16.7895 28.0468C18.3216 27.1988 19.8596 26.3508 21.386 25.4912C21.7368 25.2924 22.0292 25.2982 22.3567 25.5263C22.9006 25.9064 23.462 26.2573 24.0058 26.6315C24.3333 26.8538 24.4211 27.1637 24.2749 27.462C24.0994 27.8128 23.7018 27.9123 23.3275 27.6725C22.8947 27.3976 22.462 27.1111 22.0409 26.8128C21.883 26.7017 21.7719 26.6959 21.6023 26.7953C20.0058 27.69 18.4035 28.5789 16.807 29.4678C16.152 29.8304 15.8889 29.7485 15.5614 29.0935C15.3743 28.7193 15.1871 28.3508 15 27.9766C15 27.8596 15 27.7427 15 27.6257Z" fill="white"/>
<path d="M44.9424 25.5204C44.7495 26.0701 44.5331 26.6082 44.3693 27.1637C44.2407 27.5965 43.9951 27.8011 43.5448 27.8538C41.9892 28.0351 40.4337 28.2397 38.8781 28.4327C38.4629 28.4854 38.1413 28.269 38.0945 27.9181C38.0419 27.5438 38.2582 27.2631 38.691 27.2047C39.8664 27.0468 41.0477 26.9006 42.2231 26.7544C42.3752 26.7368 42.5331 26.7134 42.6851 26.6959C43.2758 26.6374 43.3109 26.6082 43.4044 25.9473C43.2992 25.9473 43.1939 25.9473 43.0945 25.9473C41.5155 25.9473 39.9366 25.9415 38.3635 25.9532C38.0243 25.9532 37.7436 25.8655 37.4688 25.6783C36.4571 24.9883 35.4337 24.3099 34.4044 23.6374C34.2465 23.5321 34.036 23.4912 33.843 23.4678C33.5565 23.4327 33.2582 23.462 32.9717 23.421C32.6559 23.3801 32.4746 23.1345 32.4746 22.8304C32.4746 22.5263 32.6559 22.269 32.9717 22.2456C33.7319 22.1871 34.4746 22.0935 35.1705 22.6199C36.0769 23.3099 37.0536 23.9064 38.0068 24.5204C38.1705 24.6257 38.3986 24.6959 38.5974 24.6959C40.4395 24.7076 42.2816 24.7076 44.1179 24.6959C44.5039 24.6959 44.7787 24.807 44.9366 25.1696C44.9424 25.2865 44.9424 25.4035 44.9424 25.5204Z" fill="white"/>
<path d="M27.8002 29.9298C27.5253 30.614 27.2739 31.2514 27.0107 31.9122C27.1218 31.9765 27.2096 32.0292 27.3031 32.0818C28.4552 32.7368 29.5955 33.4034 30.7534 34.0467C31.0458 34.2105 31.192 34.4327 31.2505 34.7543C31.6365 36.9005 32.0283 39.0467 32.4201 41.1871C32.5253 41.766 32.4376 41.9414 31.9055 42.2105C31.6014 42.3625 31.2973 42.5145 30.9932 42.6666C30.502 42.9064 30.1452 42.766 29.9698 42.2397C29.461 40.7368 28.9406 39.2397 28.4727 37.7251C28.3265 37.2397 28.116 36.9707 27.5897 36.9064C27.1218 36.8479 26.6599 36.7017 26.2037 36.5672C25.9873 36.5028 25.847 36.5555 25.6891 36.7017C23.6599 38.5555 21.6248 40.4034 19.5897 42.2514C19.461 42.3683 19.3324 42.4912 19.1979 42.6023C18.8821 42.8596 18.5721 42.8654 18.2797 42.5847C17.8704 42.1929 17.4727 41.7952 17.0809 41.3859C16.7827 41.0701 16.806 40.7719 17.1277 40.4034C18.1979 39.152 19.268 37.9005 20.3441 36.6549C20.4727 36.5087 20.5955 36.3567 20.7242 36.2105C21.0107 35.9064 21.3558 35.8654 21.6306 36.0876C21.9113 36.3216 21.9347 36.7017 21.6598 37.0233C21.0809 37.7075 20.4961 38.3859 19.9113 39.0701C19.3967 39.6666 18.8821 40.2689 18.3441 40.9005C18.502 41.0175 18.654 41.1344 18.8294 41.2572C20.654 39.5964 22.537 37.8888 24.4493 36.1461C24.0751 36.0467 23.7534 35.9707 23.4318 35.8771C22.6949 35.6607 22.0517 35.2923 21.5663 34.6841C20.9522 33.9181 20.8119 33.0584 21.2096 32.1637C21.6189 31.2514 22.0809 30.3625 22.537 29.4678C22.7242 29.0993 23.0751 28.9882 23.3908 29.1578C23.7066 29.3216 23.8119 29.6666 23.6306 30.0409C23.2797 30.7602 22.9172 31.4678 22.5604 32.1812C21.9756 33.345 22.2914 34.1871 23.5487 34.5847C24.6482 34.9356 25.7827 35.1812 26.9055 35.4678C27.4903 35.6198 28.0751 35.7719 28.6599 35.9005C29.0458 35.9824 29.2622 36.1929 29.3791 36.5672C29.8528 38.0409 30.3499 39.5028 30.8411 40.9707C30.8762 41.0701 30.9113 41.1637 30.9464 41.2631C30.9756 41.2689 31.0107 41.2689 31.04 41.2748C31.0634 41.1988 31.1101 41.111 31.0984 41.0409C30.7534 39.1169 30.4084 37.1871 30.0458 35.2689C30.0224 35.1578 29.9113 35.035 29.8061 34.9765C28.5663 34.2572 27.3207 33.5496 26.0809 32.842C25.5838 32.5555 25.4961 32.3099 25.7066 31.7836C26.0692 30.8713 26.4376 29.959 26.8002 29.0467C27.04 28.4502 27.3499 28.3333 27.9172 28.614C28.5253 28.9181 29.1394 29.2105 29.7417 29.5321C29.9522 29.6432 30.1511 29.6607 30.3791 29.614C32.2505 29.2338 34.116 28.8596 35.9873 28.4853C36.4844 28.3859 36.8762 28.7309 36.7944 29.1929C36.73 29.5321 36.4786 29.6607 36.1686 29.7192C35.3558 29.883 34.5487 30.0409 33.7359 30.2046C32.6072 30.4268 31.4844 30.649 30.3558 30.883C30.0224 30.9531 29.73 30.9298 29.4259 30.766C28.9172 30.4736 28.3733 30.2163 27.8002 29.9298Z" fill="white"/>
<path d="M38.5375 39.3918C38.5609 39.3099 38.6077 39.228 38.596 39.1578C38.251 37.2397 37.9059 35.3274 37.5492 33.4151C37.5317 33.304 37.4089 33.1871 37.3094 33.1286C36.6896 32.8011 36.058 32.497 35.4322 32.1812C35.1983 32.0643 35.0053 31.9122 34.9761 31.6198C34.9293 31.1461 35.3679 30.8128 35.8299 30.9999C36.1808 31.1403 36.5141 31.3274 36.8533 31.497C37.2977 31.7192 37.7363 31.9532 38.1866 32.1578C38.5024 32.2982 38.6662 32.5204 38.7246 32.8596C39.0931 34.9298 39.479 36.9941 39.8475 39.0643C40.017 40.0233 40.0112 40.0233 39.1457 40.4561C38.9118 40.573 38.6779 40.6958 38.4439 40.807C37.9878 41.0233 37.6252 40.8771 37.4556 40.3859C37.1223 39.4035 36.7948 38.4151 36.4673 37.4268C36.2451 36.7602 36.017 36.0994 35.8065 35.4327C35.748 35.2456 35.6545 35.152 35.4615 35.0877C34.479 34.7719 33.5024 34.4385 32.5258 34.1111C32.3913 34.0643 32.251 34.0116 32.1282 33.9415C31.8884 33.7953 31.7948 33.5146 31.8767 33.2573C31.9644 32.9882 32.1866 32.8187 32.4673 32.8304C32.5901 32.8362 32.7188 32.8654 32.8358 32.9064C33.9703 33.2806 35.1048 33.6725 36.2393 34.0409C36.5726 34.1461 36.7539 34.345 36.8591 34.6725C37.3621 36.1988 37.8708 37.7192 38.3796 39.2397C38.3972 39.2865 38.4147 39.3274 38.4323 39.3742C38.4673 39.3742 38.5024 39.3859 38.5375 39.3918Z" fill="white"/>
<path d="M36.8253 22.1988C35.4568 22.193 34.3399 21.076 34.3457 19.7076C34.3516 18.3391 35.4802 17.2163 36.837 17.2222C38.1995 17.228 39.3282 18.3684 39.3223 19.7193C39.3223 21.0818 38.1937 22.1988 36.8253 22.1988ZM36.8253 20.959C37.5036 20.9649 38.0709 20.4035 38.0826 19.7251C38.0884 19.0526 37.527 18.4737 36.8428 18.4678C36.1703 18.462 35.5913 19.0292 35.5913 19.7076C35.5796 20.3801 36.141 20.9532 36.8253 20.959Z" fill="white"/>
<path d="M29.3506 24.0701C27.9822 24.076 26.8652 22.959 26.8594 21.5847C26.8594 20.2163 27.9763 19.0935 29.3448 19.0876C30.7015 19.0876 31.836 20.2163 31.8418 21.5789C31.8418 22.9356 30.7132 24.0643 29.3506 24.0701ZM29.3623 22.8303C30.0407 22.8245 30.6079 22.2455 30.5962 21.573C30.5845 20.8888 30.0114 20.3274 29.3331 20.3391C28.6488 20.3508 28.0933 20.9181 28.105 21.5964C28.1108 22.2748 28.6781 22.8362 29.3623 22.8303Z" fill="white"/>
</g>
<defs>
<clipPath id="clip0_197_4837">
<rect width="29.9415" height="30" fill="white" transform="translate(15 15)"/>
</clipPath>
</defs>
</svg>
