<svg width="60" height="60" viewBox="0 0 60 60" fill="none" xmlns="http://www.w3.org/2000/svg">
<circle cx="30" cy="30" r="30" fill="#448AFF"/>
<g clip-path="url(#clip0_197_4827)">
<path d="M15 20.8441C15.1169 20.8519 15.2338 20.8675 15.3429 20.8675C16.8468 20.8675 18.3584 20.8675 19.8623 20.8675C19.9792 20.8675 20.0961 20.8675 20.2364 20.8675C20.2364 21.3117 20.2364 21.7403 20.2364 22.1922C20.361 22.2 20.4623 22.2078 20.5636 22.2078C21.9429 22.2078 23.3221 22.2078 24.7013 22.2156C24.9039 22.2156 25.0442 22.1532 25.1766 22.0052C25.761 21.3584 26.3532 20.7117 26.961 20.0805C27.0623 19.9792 27.2338 19.8857 27.374 19.8857C29.6493 19.8701 31.9247 19.8779 34.2 19.8857C34.3403 19.8857 34.5039 19.948 34.613 20.0416C35.7039 20.9766 36.7792 21.9273 37.8779 22.8701C37.987 22.9636 38.1506 23.0182 38.2909 23.026C38.7195 23.0493 39.1481 23.0338 39.6078 23.0338C39.6078 22.3169 39.6078 21.6078 39.6078 20.8909C41.3688 20.8909 43.0987 20.8909 44.8442 20.8909C44.8442 26.2052 44.8442 31.5195 44.8442 36.8649C44.7273 36.8649 44.6104 36.8649 44.4935 36.8649C43.3169 36.8649 42.1403 36.8649 40.9636 36.8727C40.839 36.8727 40.6909 36.9273 40.6052 37.0052C39.6857 37.8623 38.5091 38.026 37.4104 37.426C37.3714 37.4026 37.3247 37.387 37.2857 37.3636C36.5065 38.9143 34.5429 39.374 33.1636 38.2987C32.3455 39.9117 30.1013 40.3403 28.7299 38.8208C28.6909 38.8753 28.6519 38.9221 28.6208 38.9766C27.7169 40.4493 25.7377 40.6987 24.5065 39.4831C23.174 38.1662 21.8493 36.8338 20.5247 35.5013C20.4545 35.4234 20.4 35.3299 20.3377 35.2441C20.3143 35.2597 20.2831 35.2753 20.2597 35.2909C20.2597 35.7974 20.2597 36.3039 20.2597 36.8338C20.1584 36.8416 20.0805 36.8571 20.0104 36.8571C18.413 36.8571 16.8234 36.8571 15.226 36.8571C15.1481 36.8571 15.0701 36.8416 15 36.8338C15 31.5039 15 26.174 15 20.8441ZM28.0519 35.5247C28.0987 35.5948 28.1532 35.6883 28.2234 35.7662C28.8701 36.4286 29.5169 37.0831 30.1714 37.7377C30.4364 38.0026 30.7558 38.0727 31.1143 37.9403C31.4416 37.8156 31.6208 37.5584 31.6597 37.2156C31.6909 36.9039 31.5584 36.6545 31.3403 36.4364C30.3351 35.439 29.3299 34.4338 28.3403 33.4519C28.761 33.0312 29.174 32.6182 29.6104 32.174C29.6649 32.2441 29.7351 32.3377 29.813 32.4234C31.2701 33.8805 32.7273 35.3377 34.1844 36.7948C34.4338 37.0441 34.7221 37.1844 35.0727 37.0987C35.7584 36.9351 35.9766 36.1247 35.4701 35.6104C34.5818 34.6987 33.6779 33.8026 32.774 32.8987C32.1117 32.2441 31.4416 31.5974 30.826 30.9974C31.2701 30.5454 31.6675 30.1403 32.1039 29.6961C32.1584 29.7662 32.2208 29.8675 32.2987 29.9532C34.2078 31.8701 36.1169 33.7792 38.0338 35.6805C38.1974 35.8364 38.4312 35.961 38.6571 36.0078C39.0234 36.0857 39.3584 35.8675 39.5143 35.5403C39.6935 35.174 39.6234 34.8078 39.2961 34.4805C36.7169 31.9013 34.1455 29.3221 31.5584 26.7506C31.4649 26.6649 31.3091 26.6026 31.1766 26.6026C30.7481 26.587 30.3195 26.587 29.8909 26.6026C29.774 26.6026 29.6338 26.6338 29.5403 26.6961C28.1844 27.5922 26.7117 27.826 25.1377 27.4987C23.8286 27.226 22.8078 26.4935 21.9273 25.5117C22.3948 25.0052 22.8468 24.5143 23.3299 23.9844C22.2545 23.9844 21.2649 23.9844 20.2597 23.9844C20.2597 27.1247 20.2597 30.2493 20.2597 33.4208C20.8052 33.226 21.0779 33.5922 21.3896 33.9039C22.7844 35.3065 24.1792 36.7013 25.574 38.0961C25.6675 38.1896 25.7688 38.2909 25.8779 38.3688C26.2519 38.6182 26.7506 38.5403 27.0312 38.1896C27.3195 37.8312 27.2961 37.3792 26.9688 37.0597C26.8909 36.9818 26.774 36.9351 26.6883 36.8883C27.187 36.3896 27.5922 35.9844 28.0519 35.5247ZM24.4597 25.3558C24.5221 25.3948 24.5532 25.426 24.6 25.4416C24.6779 25.4805 24.7558 25.5273 24.8338 25.5584C26.2909 26.1584 27.639 25.9403 28.8935 25.0052C29.0182 24.9117 29.2052 24.8493 29.361 24.8415C30.1792 24.826 30.9974 24.8416 31.8078 24.826C32.0416 24.826 32.2052 24.8883 32.3688 25.0519C34.6909 27.3896 37.0208 29.7117 39.3506 32.0416C39.4208 32.1117 39.4909 32.1818 39.5922 32.2753C39.5922 29.7428 39.5922 27.2727 39.5922 24.7714C38.9766 24.7714 38.3766 24.7558 37.7766 24.7792C37.5117 24.787 37.3247 24.7091 37.1221 24.5377C36.0857 23.6182 35.0338 22.7065 33.974 21.8026C33.8571 21.7013 33.6701 21.6312 33.5143 21.6312C31.7299 21.6156 29.9377 21.6156 28.1532 21.6312C28.013 21.6312 27.8338 21.7169 27.7325 21.8182C27.2727 22.2857 26.8442 22.7688 26.4 23.2441C25.761 23.9454 25.1143 24.6467 24.4597 25.3558ZM18.4753 35.0883C18.4753 30.9273 18.4753 26.7818 18.4753 22.6364C17.8909 22.6364 17.3299 22.6364 16.7688 22.6364C16.7688 26.7974 16.7688 30.9428 16.7688 35.0883C17.3532 35.0883 17.9143 35.0883 18.4753 35.0883ZM41.3922 22.6364C41.3922 26.7974 41.3922 30.9429 41.3922 35.0805C41.9766 35.0805 42.5377 35.0805 43.1065 35.0805C43.1065 30.9195 43.1065 26.7896 43.1065 22.6364C42.5221 22.6364 41.9532 22.6364 41.3922 22.6364Z" fill="white"/>
</g>
<defs>
<clipPath id="clip0_197_4827">
<rect width="29.9221" height="30" fill="white" transform="translate(15 15)"/>
</clipPath>
</defs>
</svg>
