<svg width="18" height="19" viewBox="0 0 18 19" fill="none" xmlns="http://www.w3.org/2000/svg">
<g id="Frame 2265">
<g id="g3195">
<path id="path3187" fill-rule="evenodd" clip-rule="evenodd" d="M17.9999 9.36875C17.9999 8.74626 17.9492 8.12036 17.8413 7.50793H9.18115V11.0344H14.1404C13.9346 12.1718 13.2733 13.1779 12.3052 13.8173V16.1055H15.2638C17.0012 14.5105 17.9999 12.155 17.9999 9.36875Z" fill="#4285F4"/>
<path id="path3189" fill-rule="evenodd" clip-rule="evenodd" d="M9.18119 18.3163C11.6574 18.3163 13.7457 17.5053 15.2672 16.1054L12.3085 13.8172C11.4854 14.3758 10.4227 14.6922 9.18453 14.6922C6.78928 14.6922 4.75837 13.0804 4.02968 10.9133L0.976562 10.9132V13.2721C2.53511 16.3645 5.70976 18.3163 9.18119 18.3163Z" fill="#34A853"/>
<path id="path3191" fill-rule="evenodd" clip-rule="evenodd" d="M4.02637 10.9132C3.64184 9.77594 3.64184 8.54424 4.02637 7.40693V5.0481H0.976668C-0.325556 7.63573 -0.325556 10.6844 0.976668 13.2722L4.02637 10.9132Z" fill="#FBBC04"/>
<path id="path3193" fill-rule="evenodd" clip-rule="evenodd" d="M9.18119 3.62473C10.4902 3.60452 11.7553 4.0958 12.7033 4.99759L15.3245 2.383C13.6647 0.82836 11.4618 -0.0263366 9.18119 0.000618744C5.70976 0.000618744 2.53511 1.95228 0.976562 5.04809L4.02626 7.40693C4.75161 5.23653 6.78594 3.62473 9.18119 3.62473Z" fill="#EA4335"/>
</g>
</g>
</svg>
