<svg width="17" height="19" viewBox="0 0 17 19" fill="none" xmlns="http://www.w3.org/2000/svg">
<path d="M8.78701 1.00073C9.92538 1.00073 10.968 1.46885 11.7127 2.21358C12.4575 2.95831 12.9256 4.00093 12.9256 5.1393C12.9256 6.27767 12.4575 7.3203 11.7127 8.06502C10.968 8.80975 9.92538 9.27787 8.78701 9.27787C7.64863 9.27787 6.60601 8.80975 5.86128 8.06502C5.11655 7.3203 4.64844 6.27767 4.64844 5.1393C4.64844 4.00093 5.11655 2.95831 5.86128 2.21358C6.60601 1.46885 7.64863 1.00073 8.78701 1.00073V1.00073ZM10.6488 3.27748C10.1701 2.79872 9.5211 2.51147 8.78701 2.51147C8.06356 2.51147 7.40394 2.80936 6.92518 3.27748C6.44643 3.75623 6.15917 4.40521 6.15917 5.1393C6.15917 5.86275 6.45707 6.52237 6.92518 7.00113C7.40394 7.47988 8.05292 7.76713 8.78701 7.76713C9.51046 7.76713 10.1701 7.46924 10.6488 7.00113C11.1276 6.52237 11.4148 5.87339 11.4148 5.1393C11.4148 4.41585 11.1169 3.75623 10.6488 3.27748Z" fill="#2B2A29"/>
<path d="M2.51074 17.3635C2.51074 17.7784 2.17029 18.1189 1.75537 18.1189C1.34045 18.1189 1 17.7784 1 17.3635C1 15.2144 1.8724 13.2675 3.27675 11.8631C4.68109 10.4588 6.62803 9.5864 8.77711 9.5864C10.9262 9.5864 12.8731 10.4588 14.2775 11.8631C15.6818 13.2675 16.5542 15.2144 16.5542 17.3635C16.5542 17.7784 16.2138 18.1189 15.7988 18.1189C15.3839 18.1189 15.0435 17.7784 15.0435 17.3635C15.0435 15.6294 14.3413 14.0654 13.2029 12.927C12.0646 11.7887 10.5006 11.0865 8.76647 11.0865C7.03231 11.0865 5.46838 11.7887 4.33001 12.927C3.19163 14.0654 2.48946 15.6294 2.48946 17.3635H2.51074Z" fill="#2B2A29"/>
</svg>
