<svg width="100" height="100" viewBox="0 0 100 100" fill="none" xmlns="http://www.w3.org/2000/svg">
<circle cx="50" cy="50" r="50" fill="white"/>
<path d="M51.9293 70.3125C51.8872 70.2914 51.8346 70.2599 51.7926 70.2494C50.1308 69.7971 49.342 68.2721 49.9731 66.663C50.7619 64.6753 51.5612 62.698 52.3605 60.7208C52.4867 60.3948 52.7496 60.0267 52.676 59.7427C52.6129 59.4798 52.2027 59.2905 51.9398 59.0801C50.7829 58.1546 49.6155 57.2396 48.4481 56.3246C48.3219 56.2299 48.1957 56.1458 48.0484 56.0301C47.47 56.9977 46.8915 57.9337 46.3552 58.9013C45.7557 59.9846 44.8512 60.4684 43.6207 60.4684C40.2762 60.4473 36.9318 60.4684 33.5768 60.4579C32.22 60.4579 31.2209 59.7322 30.8949 58.5332C30.4532 56.903 31.6521 55.2939 33.3664 55.2834C36.2797 55.2624 39.193 55.2729 42.1062 55.2834C42.3481 55.2834 42.5059 55.2413 42.6426 54.9994C45.0195 50.8346 47.4069 46.6698 49.7943 42.505C49.8364 42.4314 49.8784 42.3472 49.931 42.2316C49.7838 42.221 49.6681 42.2105 49.5524 42.2105C48.1746 42.2105 46.7969 42.221 45.4191 42.2C45.1457 42.2 44.9984 42.2841 44.8722 42.5155C44.0834 43.9669 43.2947 45.4183 42.4848 46.8591C41.959 47.7846 40.9283 48.2895 39.9397 48.1527C38.8459 47.995 38.0045 47.2798 37.7311 46.2386C37.5628 45.5865 37.6259 44.9555 37.9414 44.3666C39.0457 42.3473 40.15 40.3174 41.2859 38.3086C41.7697 37.4568 42.5479 37.0255 43.526 37.015C46.2815 37.0045 49.037 37.015 51.7926 37.0045C52.0134 37.0045 52.1081 37.0887 52.2027 37.2674C53.4648 39.6549 55.4525 40.8959 58.1449 41.0116C58.3868 41.0221 58.513 41.1167 58.6392 41.306C59.3965 42.4735 60.1537 43.6303 60.9215 44.7978C60.9951 44.9029 61.0687 45.0081 61.1634 45.1553C61.6051 44.9134 62.0363 44.6715 62.4675 44.4297C63.4456 43.8933 64.4027 43.3253 65.3913 42.8205C66.5061 42.2526 67.8523 42.5891 68.599 43.5778C69.3352 44.5559 69.2932 45.9231 68.4728 46.8381C68.252 47.0905 67.968 47.3009 67.6735 47.4586C65.6858 48.5734 63.6875 49.6883 61.6997 50.782C60.301 51.5498 58.9127 51.2027 58.0398 49.867C57.3456 48.8153 56.662 47.7636 55.9679 46.7119C55.9574 46.6909 55.9363 46.6698 55.8732 46.5962C54.6743 48.6365 53.4858 50.6664 52.2763 52.7172C52.4762 52.875 52.6655 53.0327 52.8548 53.1905C54.3482 54.3684 55.8417 55.5463 57.3351 56.7243C58.4499 57.6077 58.7444 58.712 58.208 60.0477C57.1353 62.7085 56.0415 65.3589 55.0108 68.0408C54.5796 69.1556 53.9801 69.997 52.7812 70.3125C52.5077 70.3125 52.2132 70.3125 51.9293 70.3125Z" fill="#448AFF"/>
<path d="M62.5097 34.3226C62.5097 36.71 60.564 38.6557 58.1871 38.6557C55.8207 38.6452 53.8961 36.7205 53.875 34.3436C53.8645 31.9562 55.7892 30 58.1766 30C60.5745 29.9895 62.5097 31.9247 62.5097 34.3226Z" fill="#448AFF"/>
</svg>
