<svg width="100" height="100" viewBox="0 0 100 100" fill="none" xmlns="http://www.w3.org/2000/svg">
<circle cx="50" cy="50" r="50" fill="white"/>
<path d="M34.9893 50.15C34.9893 50.6875 35.0018 51.175 34.9893 51.65C34.9643 52.5125 34.3518 53.1 33.4893 53.1C32.6143 53.1 32.0143 52.5125 32.0018 51.6375C31.9893 51.1625 32.0018 50.675 32.0018 50.15C31.4893 50.15 31.0018 50.1625 30.5268 50.15C29.6268 50.1375 29.0268 49.525 29.0393 48.6375C29.0518 47.7625 29.6393 47.175 30.5143 47.1625C30.9893 47.15 31.4768 47.1625 31.9893 47.1625C31.9893 46.6375 31.9768 46.1625 31.9893 45.675C32.0018 44.8 32.6018 44.2125 33.4643 44.2C34.3518 44.1875 34.9643 44.7875 34.9768 45.6875C34.9893 46.15 34.9768 46.625 34.9768 47.125C35.1143 47.1375 35.2268 47.1625 35.3518 47.1625C37.0018 47.1625 38.6518 47.1625 40.3143 47.1625C40.4643 47.1625 40.6643 47.125 40.7768 47.025C41.8518 46.05 42.8893 45.0375 43.9643 44.075C46.1643 42.1125 48.4643 40.2625 50.5893 38.225C53.0643 35.8625 56.3768 36.4625 58.2143 39.0625C58.8143 39.9125 59.3518 40.8125 59.8518 41.725C61.3518 44.45 63.6268 46.1875 66.5768 47.075C67.5018 47.35 67.9268 47.8625 67.9393 48.6375C67.9518 49.475 67.3893 50.1 66.5518 50.1625C66.3768 50.175 66.2143 50.1625 66.0393 50.1625C55.8893 50.1625 45.7393 50.1625 35.5893 50.1625C35.4143 50.15 35.2268 50.15 34.9893 50.15ZM51.3393 47.1375C54.3518 47.1375 57.2643 47.1375 60.2893 47.1375C58.7268 45.7625 57.7018 44.1 56.7018 42.375C54.9143 43.9625 53.1643 45.5125 51.3393 47.1375Z" fill="#448AFF"/>
<path d="M43.2134 66.625C43.6884 64.9125 44.1509 63.2375 44.6134 61.5625C44.7634 61.025 44.9009 60.4751 45.0759 59.9501C45.1509 59.7001 45.1134 59.5251 44.9134 59.3376C43.8384 58.3001 42.7759 57.2501 41.7134 56.1876C40.8634 55.3376 40.1509 54.4125 39.7884 53.1875C39.9759 53.175 40.1134 53.1625 40.2634 53.1625C42.5509 53.1625 44.8509 53.15 47.1384 53.175C47.3634 53.175 47.6509 53.2876 47.8259 53.4501C48.8759 54.4626 49.9134 55.5125 50.9384 56.55C51.3884 57 51.5259 57.4876 51.3009 58.1501C50.3509 60.8876 49.4509 63.6375 48.5384 66.3875C48.5134 66.4625 48.5009 66.5375 48.4884 66.6375C48.6384 66.6375 48.7634 66.6375 48.8884 66.6375C54.1634 66.6375 59.4259 66.6375 64.7009 66.6375C66.3759 66.6375 67.5884 65.6626 67.8759 64.1126C68.0384 63.2001 67.7634 62.4 67.1634 61.6875C66.4759 60.8625 66.7009 59.8376 67.6384 59.3751C68.2759 59.0626 68.9134 59.2125 69.4509 59.7875C71.3259 61.825 71.4134 64.9501 69.6384 67.2126C68.4009 68.7876 66.7634 69.5875 64.7884 69.625C62.4009 69.6625 60.0134 69.6375 57.6259 69.6375C48.6384 69.6375 39.6634 69.6375 30.6759 69.6375C29.4884 69.6375 28.8134 68.8376 29.0759 67.7376C29.2384 67.0251 29.7759 66.6501 30.6134 66.6501C34.4509 66.6501 38.2884 66.6501 42.1259 66.6501C42.4759 66.6251 42.8134 66.625 43.2134 66.625Z" fill="#448AFF"/>
<path d="M63.4512 30.6875C66.0012 30.6875 67.9512 32.65 67.9387 35.2125C67.9262 37.7375 65.9637 39.675 63.4387 39.675C60.8887 39.675 58.9387 37.7 58.9512 35.15C58.9637 32.625 60.9137 30.6875 63.4512 30.6875Z" fill="#448AFF"/>
</svg>
