<svg width="60" height="60" viewBox="0 0 60 60" fill="none" xmlns="http://www.w3.org/2000/svg">
<circle cx="30" cy="30" r="30" fill="#448AFF"/>
<g clip-path="url(#clip0_197_4814)">
<path d="M19.454 43.9922C18.0946 43.5 17.1649 42.4766 16.3212 41.3672C15.2431 39.961 14.4696 38.3985 14.1571 36.6328C13.5243 33.0313 16.2821 29.8438 19.9306 29.961C23.1103 30.0625 25.6649 33.0156 25.2587 36.1719C24.8915 39.0703 23.4306 41.375 21.2509 43.2344C20.8681 43.5625 20.3681 43.7422 19.9228 43.9922C19.7665 43.9922 19.6103 43.9922 19.454 43.9922ZM21.5634 35.5781C21.5712 34.5391 20.7274 33.7031 19.6962 33.6953C18.6728 33.6953 17.8368 34.5235 17.8212 35.5391C17.8134 36.5781 18.6415 37.4297 19.6728 37.4375C20.7118 37.4453 21.5556 36.6094 21.5634 35.5781Z" fill="white"/>
<path d="M42.1497 19.5235C42.1262 20.9219 41.7981 22.1016 41.259 23.2188C40.47 24.8672 39.4309 26.3203 37.97 27.4453C36.845 28.3047 36.1887 28.336 35.0872 27.4375C32.7825 25.5547 31.2903 23.1719 30.9387 20.1719C30.595 17.2422 32.8684 14.4531 35.8059 14.1172C38.845 13.7656 41.5012 15.7188 42.0637 18.7266C42.1262 19.0235 42.134 19.3516 42.1497 19.5235ZM38.4075 19.6719C38.4153 18.6328 37.5794 17.7891 36.5403 17.7891C35.5169 17.7891 34.6731 18.6172 34.6653 19.6328C34.6575 20.6719 35.4856 21.5235 36.5169 21.5313C37.5481 21.5391 38.3997 20.711 38.4075 19.6719Z" fill="white"/>
<path d="M30.7744 42.1172C29.3603 42.1172 27.9463 42.1172 26.54 42.1172C26.04 42.1172 25.6416 41.75 25.6025 41.2891C25.5556 40.7969 25.8525 40.375 26.3291 40.2734C26.4541 40.25 26.5791 40.25 26.7041 40.25C29.3525 40.25 32.0009 40.25 34.6572 40.25C36.4306 40.2422 37.9072 39.0625 38.3134 37.336C38.8525 35.0469 37.1103 32.7891 34.7588 32.7656C32.2744 32.7422 29.79 32.7656 27.3056 32.7578C26.5869 32.7578 26.1181 32.125 26.3681 31.5C26.5166 31.1172 26.8056 30.8984 27.2197 30.8984C29.8134 30.8906 32.4072 30.8438 34.9931 30.9141C37.79 30.9844 40.0791 33.2969 40.2744 36.125C40.4697 38.9219 38.5009 41.4922 35.7744 42C35.3838 42.0703 34.9853 42.1094 34.5869 42.1094C33.3056 42.125 32.04 42.1172 30.7744 42.1172Z" fill="white"/>
<path d="M25.3448 21.5391C26.3682 21.5391 27.3917 21.5391 28.4151 21.5391C29.0401 21.5391 29.462 21.9141 29.4698 22.461C29.4776 23.0313 29.0557 23.4063 28.4073 23.4063C26.4776 23.4063 24.5479 23.4063 22.6182 23.4063C20.376 23.4063 18.7745 25.0079 18.7588 27.25C18.7588 27.8125 18.3526 28.2422 17.8292 28.25C17.2901 28.2579 16.8995 27.8594 16.8838 27.2813C16.7823 24.2188 19.2901 21.5782 22.3604 21.5391C23.3526 21.5235 24.3448 21.5391 25.3448 21.5391Z" fill="white"/>
</g>
<defs>
<clipPath id="clip0_197_4814">
<rect width="28.2031" height="30" fill="white" transform="translate(14 14)"/>
</clipPath>
</defs>
</svg>
