<svg width="32" height="32" viewBox="0 0 32 32" fill="none" xmlns="http://www.w3.org/2000/svg">
<g clip-path="url(#clip0_197_3902)">
<path d="M16 32C24.8366 32 32 24.8366 32 16C32 7.16344 24.8366 0 16 0C7.16344 0 0 7.16344 0 16C0 24.8366 7.16344 32 16 32Z" fill="#F0F0F0"/>
<path d="M3.30709 6.2589C2.05028 7.89409 1.10259 9.77878 0.550781 11.8262H8.87441L3.30709 6.2589Z" fill="#0052B4"/>
<path d="M31.4485 11.8262C30.8967 9.77887 29.9489 7.89418 28.6922 6.25899L23.125 11.8262H31.4485Z" fill="#0052B4"/>
<path d="M0.550781 20.1741C1.10266 22.2214 2.05034 24.1061 3.30709 25.7412L8.87422 20.1741H0.550781Z" fill="#0052B4"/>
<path d="M25.7411 3.30759C24.1059 2.05078 22.2213 1.10309 20.1738 0.551216V8.87478L25.7411 3.30759Z" fill="#0052B4"/>
<path d="M6.25781 28.6924C7.893 29.9493 9.77769 30.8969 11.8251 31.4488V23.1253L6.25781 28.6924Z" fill="#0052B4"/>
<path d="M11.825 0.551216C9.77762 1.10309 7.89294 2.05078 6.25781 3.30753L11.825 8.87472V0.551216Z" fill="#0052B4"/>
<path d="M20.1738 31.4488C22.2212 30.8969 24.1059 29.9492 25.741 28.6925L20.1738 23.1253V31.4488Z" fill="#0052B4"/>
<path d="M23.125 20.1741L28.6922 25.7413C29.9489 24.1062 30.8967 22.2214 31.4485 20.1741H23.125Z" fill="#0052B4"/>
<path d="M31.8646 13.9131H18.0871H18.087V0.135438C17.4038 0.0465 16.7073 0 16 0C15.2926 0 14.5962 0.0465 13.9131 0.135438V13.9129V13.913H0.135438C0.0465 14.5962 0 15.2927 0 16C0 16.7074 0.0465 17.4038 0.135438 18.0869H13.9129H13.913V31.8646C14.5962 31.9535 15.2926 32 16 32C16.7073 32 17.4038 31.9536 18.0869 31.8646V18.0871V18.087H31.8646C31.9535 17.4038 32 16.7074 32 16C32 15.2927 31.9535 14.5962 31.8646 13.9131Z" fill="#D80027"/>
<path d="M20.1738 20.174L27.3136 27.3138C27.642 26.9855 27.9552 26.6423 28.2541 26.2866L22.1415 20.174H20.1738V20.174Z" fill="#D80027"/>
<path d="M11.8254 20.174H11.8252L4.68555 27.3137C5.0138 27.6421 5.35698 27.9553 5.71273 28.2542L11.8254 22.1414V20.174Z" fill="#D80027"/>
<path d="M11.8263 11.8262V11.8261L4.68659 4.68627C4.35822 5.01452 4.04497 5.35771 3.74609 5.71346L9.85878 11.8262H11.8263V11.8262Z" fill="#D80027"/>
<path d="M20.1738 11.8262L27.3136 4.68629C26.9854 4.35791 26.6422 4.04466 26.2865 3.74585L20.1738 9.85854V11.8262Z" fill="#D80027"/>
</g>
<defs>
<clipPath id="clip0_197_3902">
<rect width="32" height="32" fill="white"/>
</clipPath>
</defs>
</svg>
