<svg width="18" height="18" viewBox="0 0 18 18" fill="none" xmlns="http://www.w3.org/2000/svg">
<g id="vk-v2-svgrepo-com 1" clip-path="url(#clip0_170_1518)">
<path id="Vector" d="M11.7614 0.00524902H6.23887C1.19881 0.00524902 0.00537109 1.19869 0.00537109 6.23875V11.7613C0.00537109 16.8013 1.19881 17.9948 6.23887 17.9948H11.7614C16.8015 17.9948 17.9949 16.8013 17.9949 11.7613V6.23875C17.9949 1.19869 16.7887 0.00524902 11.7614 0.00524902ZM14.529 12.8403H13.22C12.7248 12.8403 12.5726 12.4468 11.684 11.5455C10.9094 10.7975 10.5668 10.695 10.375 10.695C10.1083 10.695 10.032 10.7698 10.032 11.1393V12.32C10.032 12.6376 9.93028 12.8279 9.09251 12.8279C7.7087 12.8279 6.17268 11.9902 5.0933 10.4283C3.46826 8.14317 3.02395 6.42912 3.02395 6.07382C3.02395 5.88345 3.09875 5.7058 3.46826 5.7058H4.77727C5.10752 5.7058 5.2343 5.85802 5.36109 6.21369C6.00849 8.07997 7.08786 9.71772 7.53031 9.71772C7.69524 9.71772 7.77154 9.64292 7.77154 9.22255V7.29269C7.72067 6.40406 7.25093 6.32776 7.25093 6.01061C7.25093 5.85839 7.37771 5.7058 7.58117 5.7058H9.63818C9.91756 5.7058 10.0189 5.85802 10.0189 6.18826V8.79057C10.0189 9.06995 10.1457 9.17131 10.222 9.17131C10.3869 9.17131 10.5268 9.06958 10.8313 8.76514C11.7707 7.71157 12.4436 6.08653 12.4436 6.08653C12.5326 5.89617 12.6848 5.71851 13.0151 5.71851H14.3241C14.7175 5.71851 14.8065 5.9216 14.7175 6.20098C14.5526 6.96282 12.953 9.22255 12.953 9.22255C12.8135 9.45106 12.7626 9.55279 12.953 9.80636C13.0925 9.99673 13.5514 10.3902 13.8543 10.7459C14.4131 11.3817 14.8447 11.9139 14.9587 12.2819C15.0878 12.6499 14.897 12.8403 14.529 12.8403Z" fill="#2787F5"/>
</g>
<defs>
<clipPath id="clip0_170_1518">
<rect width="18" height="18" fill="white"/>
</clipPath>
</defs>
</svg>
