<svg width="122" height="36" viewBox="0 0 122 36" fill="none" xmlns="http://www.w3.org/2000/svg">
<path d="M117.481 0.705931C119.574 0.705931 121.276 2.36572 121.276 4.4055V30.8388C121.276 32.8786 119.574 34.5384 117.481 34.5384H4.51852C2.42644 34.5384 0.724092 32.8786 0.724092 30.8388V4.4055C0.724092 2.36572 2.42644 0.705931 4.51852 0.705931H117.481ZM117.481 -5.83411e-05H4.51852C2.03446 -5.83411e-05 0 1.98354 0 4.4055V30.8388C0 33.2608 2.03446 35.2444 4.51852 35.2444H117.481C119.966 35.2444 122 33.2608 122 30.8388V4.4055C122 1.98354 119.966 -5.83411e-05 117.481 -5.83411e-05Z" fill="#38496C"/>
<path d="M27.2268 17.4318C27.2005 14.592 29.6116 13.2104 29.7219 13.1461C28.3564 11.205 26.2399 10.9398 25.4962 10.9186C23.7186 10.7363 21.9943 11.9557 21.0888 11.9557C20.1652 11.9557 18.7708 10.9363 17.2679 10.9662C15.334 10.9953 13.5248 12.087 12.5325 13.7823C10.4847 17.2389 12.012 22.3185 13.9739 25.1125C14.9554 26.4808 16.1022 28.0087 17.6032 27.9549C19.0717 27.8959 19.6203 27.0421 21.3924 27.0421C23.1483 27.0421 23.6634 27.9549 25.1943 27.9206C26.7704 27.8959 27.7626 26.546 28.7097 25.1653C29.8439 23.5969 30.2993 22.0524 30.3174 21.9731C30.2804 21.9607 27.2566 20.8355 27.2268 17.4318Z" fill="#38496C"/>
<path d="M24.3349 9.08065C25.1247 8.11759 25.6652 6.80738 25.5151 5.47778C24.372 5.52713 22.9423 6.24876 22.119 7.19066C21.3906 8.02067 20.74 9.3811 20.9081 10.6605C22.1922 10.7539 23.5107 10.0287 24.3349 9.08065Z" fill="#38496C"/>
<path d="M48.4793 27.7585H46.427L45.3028 24.3143H41.3951L40.3243 27.7585H38.3262L42.1976 16.0327H44.5888L48.4793 27.7585ZM44.9639 22.8693L43.9472 19.8074C43.8397 19.4946 43.6381 18.758 43.3408 17.5984H43.3047C43.1863 18.0972 42.9956 18.8338 42.7335 19.8074L41.7349 22.8693H44.9639Z" fill="#38496C"/>
<path d="M58.4354 23.4268C58.4354 24.8648 58.0368 26.0014 57.2398 26.8358C56.5258 27.5786 55.6393 27.9496 54.5811 27.9496C53.4388 27.9496 52.6182 27.5495 52.1185 26.7495H52.0823V31.2035H50.1556V22.0866C50.1556 21.1826 50.1312 20.2548 50.0842 19.3032H51.7787L51.8862 20.6434H51.9224C52.5649 19.6336 53.54 19.1296 54.8486 19.1296C55.8715 19.1296 56.7255 19.5235 57.4087 20.3121C58.0938 21.1016 58.4354 22.1395 58.4354 23.4268ZM56.4725 23.4955C56.4725 22.6726 56.2827 21.9941 55.9014 21.4602C55.4848 20.9033 54.9254 20.6249 54.2241 20.6249C53.7487 20.6249 53.3168 20.78 52.9309 21.0857C52.5441 21.3941 52.2911 21.7968 52.1727 22.2955C52.113 22.5281 52.0832 22.7184 52.0832 22.8682V24.278C52.0832 24.893 52.2766 25.412 52.6634 25.8358C53.0502 26.2596 53.5526 26.4711 54.1708 26.4711C54.8965 26.4711 55.4613 26.1979 55.8652 25.6534C56.2701 25.108 56.4725 24.389 56.4725 23.4955Z" fill="#38496C"/>
<path d="M68.4095 23.4268C68.4095 24.8648 68.011 26.0014 67.213 26.8358C66.5 27.5786 65.6135 27.9496 64.5553 27.9496C63.413 27.9496 62.5924 27.5495 62.0936 26.7495H62.0574V31.2035H60.1307V22.0866C60.1307 21.1826 60.1063 20.2548 60.0593 19.3032H61.7538L61.8613 20.6434H61.8975C62.5391 19.6336 63.5142 19.1296 64.8237 19.1296C65.8457 19.1296 66.6997 19.5235 67.3848 20.3121C68.067 21.1016 68.4095 22.1395 68.4095 23.4268ZM66.4467 23.4955C66.4467 22.6726 66.256 21.9941 65.8747 21.4602C65.4581 20.9033 64.9005 20.6249 64.1983 20.6249C63.722 20.6249 63.291 20.78 62.9042 21.0857C62.5174 21.3941 62.2653 21.7968 62.1469 22.2955C62.0881 22.5281 62.0574 22.7184 62.0574 22.8682V24.278C62.0574 24.893 62.2508 25.412 62.6358 25.8358C63.0226 26.2587 63.525 26.4711 64.145 26.4711C64.8706 26.4711 65.4355 26.1979 65.8394 25.6534C66.2443 25.108 66.4467 24.389 66.4467 23.4955Z" fill="#38496C"/>
<path d="M79.5613 24.4702C79.5613 25.4676 79.2062 26.2791 78.4931 26.9056C77.7096 27.5902 76.6189 27.9321 75.2172 27.9321C73.9231 27.9321 72.8857 27.6889 72.1003 27.2016L72.5468 25.6359C73.3926 26.1346 74.3207 26.3848 75.332 26.3848C76.0577 26.3848 76.6225 26.2245 77.0282 25.9055C77.4322 25.5865 77.6337 25.1583 77.6337 24.6244C77.6337 24.1486 77.4674 23.7477 77.134 23.4225C76.8023 23.0974 76.2483 22.7952 75.4748 22.5159C73.3691 21.7502 72.3172 20.6285 72.3172 19.1536C72.3172 18.1896 72.6859 17.3993 73.4243 16.7842C74.1599 16.1683 75.1413 15.8608 76.3685 15.8608C77.4629 15.8608 78.372 16.0468 79.0977 16.4177L78.616 17.9491C77.9383 17.5896 77.1719 17.4098 76.3143 17.4098C75.6365 17.4098 75.107 17.5728 74.7274 17.8971C74.4066 18.187 74.2457 18.5403 74.2457 18.9588C74.2457 19.4223 74.4292 19.8056 74.7979 20.1069C75.1187 20.3853 75.7016 20.6867 76.5475 21.0118C77.5822 21.418 78.3422 21.8929 78.8311 22.4375C79.3182 22.9802 79.5613 23.6596 79.5613 24.4702Z" fill="#38496C"/>
<path d="M85.9314 20.713H83.8077V24.8181C83.8077 25.8623 84.1818 26.3839 84.9319 26.3839C85.2762 26.3839 85.5618 26.3548 85.7877 26.2966L85.841 27.7232C85.4615 27.8615 84.9617 27.9311 84.3427 27.9311C83.5818 27.9311 82.9871 27.7047 82.5579 27.2527C82.1304 26.7998 81.9153 26.0402 81.9153 24.9732V20.7113H80.6501V19.3015H81.9153V17.7534L83.8077 17.1965V19.3015H85.9314V20.713Z" fill="#38496C"/>
<path d="M95.5134 23.4613C95.5134 24.7609 95.1321 25.8279 94.3712 26.6624C93.5732 27.5214 92.5141 27.9497 91.1937 27.9497C89.9213 27.9497 88.9083 27.5382 88.1528 26.7152C87.3973 25.8923 87.0195 24.8534 87.0195 23.6014C87.0195 22.2912 87.4081 21.218 88.188 20.3836C88.9661 19.5483 90.0162 19.1306 91.3365 19.1306C92.6089 19.1306 93.6328 19.5421 94.4055 20.3659C95.1447 21.1651 95.5134 22.1969 95.5134 23.4613ZM93.5144 23.5221C93.5144 22.7423 93.3436 22.0735 92.9975 21.5158C92.5936 20.8409 92.0161 20.5043 91.2678 20.5043C90.4934 20.5043 89.9051 20.8417 89.5011 21.5158C89.155 22.0744 88.9842 22.7537 88.9842 23.5573C88.9842 24.3371 89.155 25.0059 89.5011 25.5627C89.9177 26.2377 90.4997 26.5742 91.2507 26.5742C91.9863 26.5742 92.5638 26.2306 92.9804 25.5451C93.3355 24.9768 93.5144 24.301 93.5144 23.5221Z" fill="#38496C"/>
<path d="M101.776 20.9553C101.585 20.9209 101.382 20.9033 101.169 20.9033C100.491 20.9033 99.9669 21.1527 99.5982 21.6523C99.2774 22.0928 99.1165 22.6497 99.1165 23.322V27.7584H97.1907L97.2088 21.9659C97.2088 20.9914 97.1844 20.1041 97.1365 19.3041H98.8147L98.8851 20.9218H98.9385C99.1418 20.3658 99.4626 19.9182 99.9018 19.5825C100.331 19.2803 100.795 19.1296 101.294 19.1296C101.472 19.1296 101.633 19.142 101.776 19.164V20.9553Z" fill="#38496C"/>
<path d="M110.393 23.1308C110.393 23.4673 110.37 23.7511 110.322 23.9828H104.542C104.565 24.8181 104.844 25.4569 105.381 25.8974C105.868 26.2913 106.498 26.4887 107.271 26.4887C108.127 26.4887 108.908 26.3556 109.61 26.0886L109.912 27.3927C109.091 27.7416 108.123 27.9152 107.005 27.9152C105.66 27.9152 104.605 27.5293 103.836 26.7583C103.07 25.9873 102.686 24.952 102.686 23.6533C102.686 22.3783 103.043 21.3165 103.758 20.4698C104.506 19.5658 105.517 19.1138 106.79 19.1138C108.04 19.1138 108.986 19.5658 109.628 20.4698C110.137 21.1879 110.393 22.0761 110.393 23.1308ZM108.556 22.6435C108.568 22.0866 108.443 21.6056 108.181 21.1994C107.848 20.6769 107.336 20.4161 106.646 20.4161C106.016 20.4161 105.504 20.6707 105.112 21.1817C104.792 21.5879 104.601 22.0752 104.542 22.6426H108.556V22.6435Z" fill="#38496C"/>
<path d="M44.3267 8.81918C44.3267 9.85625 44.0077 10.6369 43.3706 11.1612C42.7805 11.6449 41.9418 11.8872 40.8556 11.8872C40.317 11.8872 39.8561 11.8643 39.4702 11.8185V6.15206C39.9736 6.07276 40.5158 6.03223 41.1014 6.03223C42.1361 6.03223 42.916 6.25162 43.442 6.69042C44.0312 7.18648 44.3267 7.89578 44.3267 8.81918ZM43.3281 8.84473C43.3281 8.17245 43.1456 7.657 42.7805 7.2975C42.4154 6.93889 41.8822 6.75914 41.18 6.75914C40.8818 6.75914 40.6279 6.77853 40.4173 6.81906V11.1268C40.5339 11.1444 40.7471 11.1524 41.0571 11.1524C41.7819 11.1524 42.3413 10.9559 42.7353 10.5629C43.1293 10.1699 43.3281 9.5972 43.3281 8.84473Z" fill="#38496C"/>
<path d="M49.6216 9.7249C49.6216 10.3637 49.4346 10.8871 49.0604 11.2977C48.6682 11.7197 48.1486 11.9303 47.4997 11.9303C46.8744 11.9303 46.3764 11.7285 46.005 11.3232C45.6345 10.9188 45.4492 10.4086 45.4492 9.79363C45.4492 9.15042 45.6399 8.62263 46.0231 8.21292C46.4062 7.8032 46.9214 7.5979 47.5702 7.5979C48.1956 7.5979 48.698 7.79967 49.0785 8.2041C49.44 8.59708 49.6216 9.1046 49.6216 9.7249ZM48.6393 9.75486C48.6393 9.37158 48.5543 9.04292 48.3854 8.7689C48.1865 8.4376 47.9037 8.27195 47.5359 8.27195C47.1554 8.27195 46.8662 8.4376 46.6674 8.7689C46.4975 9.04292 46.4135 9.37686 46.4135 9.7716C46.4135 10.1549 46.4984 10.4835 46.6674 10.7576C46.8726 11.0889 47.1581 11.2545 47.5268 11.2545C47.8883 11.2545 48.1721 11.0862 48.3763 10.7488C48.5516 10.4694 48.6393 10.1381 48.6393 9.75486Z" fill="#38496C"/>
<path d="M56.7211 7.68237L55.3882 11.8359H54.5206L53.9684 10.0323C53.8284 9.58205 53.7145 9.13444 53.6259 8.69036H53.6088C53.5265 9.14678 53.4127 9.5935 53.2663 10.0323L52.6798 11.8359H51.8023L50.5488 7.68237H51.5221L52.0038 9.65694C52.1204 10.1239 52.2162 10.5689 52.293 10.9901H52.3101C52.3806 10.6429 52.4972 10.2006 52.6617 9.66575L53.2663 7.68325H54.038L54.6173 9.62346C54.7574 10.0966 54.8712 10.5522 54.9589 10.9909H54.9851C55.0493 10.5636 55.146 10.1081 55.2743 9.62346L55.7912 7.68325H56.7211V7.68237Z" fill="#38496C"/>
<path d="M61.6308 11.836H60.6837V9.457C60.6837 8.72392 60.3982 8.35738 59.8252 8.35738C59.5442 8.35738 59.3173 8.45782 59.1411 8.6596C58.9667 8.86137 58.8781 9.09927 58.8781 9.37154V11.8351H57.9311V8.8693C57.9311 8.50452 57.9193 8.1089 57.8967 7.68068H58.729L58.7733 8.33006H58.7995C58.9098 8.12829 59.0743 7.96176 59.2902 7.82871C59.5469 7.67363 59.8343 7.59521 60.1488 7.59521C60.5464 7.59521 60.8771 7.72033 61.1401 7.97145C61.4673 8.27896 61.6308 8.73802 61.6308 9.34775V11.836Z" fill="#38496C"/>
<path d="M64.2426 11.836H63.2964V5.77661H64.2426V11.836Z" fill="#38496C"/>
<path d="M69.8184 9.7249C69.8184 10.3637 69.6313 10.8871 69.2572 11.2977C68.865 11.7197 68.3445 11.9303 67.6965 11.9303C67.0702 11.9303 66.5723 11.7285 66.2018 11.3232C65.8313 10.9188 65.646 10.4086 65.646 9.79363C65.646 9.15042 65.8367 8.62263 66.2198 8.21292C66.603 7.8032 67.1181 7.5979 67.7661 7.5979C68.3924 7.5979 68.8939 7.79967 69.2753 8.2041C69.6368 8.59708 69.8184 9.1046 69.8184 9.7249ZM68.8352 9.75486C68.8352 9.37158 68.7502 9.04292 68.5812 8.7689C68.3833 8.4376 68.0996 8.27195 67.7326 8.27195C67.3513 8.27195 67.0621 8.4376 66.8642 8.7689C66.6943 9.04292 66.6102 9.37686 66.6102 9.7716C66.6102 10.1549 66.6952 10.4835 66.8642 10.7576C67.0693 11.0889 67.3549 11.2545 67.7236 11.2545C68.0851 11.2545 68.368 11.0862 68.5722 10.7488C68.7484 10.4694 68.8352 10.1381 68.8352 9.75486Z" fill="#38496C"/>
<path d="M74.4019 11.836H73.5515L73.481 11.3576H73.4548C73.1638 11.7391 72.749 11.9303 72.2104 11.9303C71.8082 11.9303 71.4829 11.8043 71.238 11.5541C71.0157 11.3268 70.9045 11.0439 70.9045 10.7082C70.9045 10.2007 71.1214 9.81389 71.5579 9.54604C71.9935 9.27818 72.6062 9.14689 73.3951 9.15306V9.07552C73.3951 8.52835 73.1005 8.25521 72.5104 8.25521C72.0902 8.25521 71.7197 8.3583 71.3998 8.56272L71.2073 7.95651C71.6031 7.71773 72.092 7.5979 72.6686 7.5979C73.7819 7.5979 74.3404 8.17062 74.3404 9.31607V10.8457C74.3404 11.2607 74.3612 11.5911 74.4019 11.836ZM73.4186 10.4086V9.76808C72.374 9.75045 71.8516 10.0298 71.8516 10.6051C71.8516 10.8219 71.9113 10.984 72.0333 11.0924C72.1553 11.2008 72.3107 11.2545 72.496 11.2545C72.7038 11.2545 72.8981 11.1902 73.0752 11.0624C73.2533 10.9338 73.3626 10.7708 73.4033 10.5708C73.4132 10.5258 73.4186 10.4712 73.4186 10.4086Z" fill="#38496C"/>
<path d="M79.7835 11.836H78.943L78.8987 11.169H78.8725C78.6041 11.6765 78.1469 11.9303 77.5043 11.9303C76.991 11.9303 76.5636 11.7338 76.2247 11.3408C75.8858 10.9479 75.7168 10.4377 75.7168 9.81122C75.7168 9.13893 75.9002 8.5944 76.269 8.17852C76.6259 7.79083 77.0633 7.59699 77.5838 7.59699C78.1559 7.59699 78.5562 7.78466 78.784 8.1609H78.802V5.77661H79.75V10.717C79.75 11.1214 79.7609 11.4941 79.7835 11.836ZM78.802 10.0844V9.39181C78.802 9.27198 78.793 9.17506 78.7758 9.10104C78.7225 8.879 78.6077 8.69221 78.4333 8.54154C78.2571 8.39087 78.0447 8.31509 77.7998 8.31509C77.4465 8.31509 77.1699 8.45166 76.9666 8.72569C76.7651 8.99972 76.663 9.34952 76.663 9.77686C76.663 10.1875 76.7597 10.5205 76.954 10.7769C77.1591 11.0501 77.4356 11.1866 77.7818 11.1866C78.0926 11.1866 78.3411 11.073 78.53 10.8448C78.7126 10.6342 78.802 10.3804 78.802 10.0844Z" fill="#38496C"/>
<path d="M87.8836 9.7249C87.8836 10.3637 87.6965 10.8871 87.3224 11.2977C86.9302 11.7197 86.4114 11.9303 85.7617 11.9303C85.1372 11.9303 84.6393 11.7285 84.267 11.3232C83.8964 10.9188 83.7112 10.4086 83.7112 9.79363C83.7112 9.15042 83.9019 8.62263 84.285 8.21292C84.6682 7.8032 85.1833 7.5979 85.8331 7.5979C86.4575 7.5979 86.9609 7.79967 87.3405 8.2041C87.7019 8.59708 87.8836 9.1046 87.8836 9.7249ZM86.9022 9.75486C86.9022 9.37158 86.8172 9.04292 86.6482 8.7689C86.4485 8.4376 86.1665 8.27195 85.7978 8.27195C85.4183 8.27195 85.1291 8.4376 84.9294 8.7689C84.7595 9.04292 84.6754 9.37686 84.6754 9.7716C84.6754 10.1549 84.7604 10.4835 84.9294 10.7576C85.1345 11.0889 85.4201 11.2545 85.7888 11.2545C86.1503 11.2545 86.4349 11.0862 86.6392 10.7488C86.8136 10.4694 86.9022 10.1381 86.9022 9.75486Z" fill="#38496C"/>
<path d="M92.9759 11.836H92.0297V9.457C92.0297 8.72392 91.7441 8.35738 91.1703 8.35738C90.8892 8.35738 90.6624 8.45782 90.4871 8.6596C90.3118 8.86137 90.2241 9.09927 90.2241 9.37154V11.8351H89.2761V8.8693C89.2761 8.50452 89.2653 8.1089 89.2427 7.68068H90.0741L90.1184 8.33006H90.1446C90.2557 8.12829 90.4202 7.96176 90.6353 7.82871C90.8928 7.67363 91.1793 7.59521 91.4947 7.59521C91.8914 7.59521 92.2222 7.72033 92.4852 7.97145C92.8132 8.27896 92.9759 8.73802 92.9759 9.34775V11.836Z" fill="#38496C"/>
<path d="M99.3497 8.37405H98.3068V10.3918C98.3068 10.9046 98.492 11.161 98.8589 11.161C99.0288 11.161 99.1698 11.1469 99.281 11.1178L99.3054 11.8183C99.1183 11.887 98.8725 11.9214 98.5698 11.9214C98.1956 11.9214 97.9046 11.8104 97.6941 11.5883C97.4826 11.3663 97.3778 10.9927 97.3778 10.4684V8.37405H96.7551V7.68237H97.3778V6.92109L98.3059 6.64795V7.68149H99.3487V8.37405H99.3497Z" fill="#38496C"/>
<path d="M104.363 11.836H103.415V9.47463C103.415 8.7301 103.13 8.35739 102.558 8.35739C102.119 8.35739 101.819 8.57326 101.654 9.005C101.626 9.09576 101.61 9.20678 101.61 9.33718V11.8351H100.664V5.77661H101.61V8.27985H101.628C101.926 7.82431 102.354 7.59699 102.907 7.59699C103.3 7.59699 103.624 7.7221 103.882 7.97322C104.202 8.28602 104.363 8.75124 104.363 9.36626V11.836Z" fill="#38496C"/>
<path d="M109.535 9.56265C109.535 9.7283 109.523 9.86752 109.5 9.98118H106.66C106.672 10.3918 106.808 10.7046 107.071 10.9213C107.311 11.1152 107.621 11.2121 108.001 11.2121C108.421 11.2121 108.804 11.1469 109.149 11.0156L109.298 11.6571C108.894 11.828 108.418 11.9135 107.868 11.9135C107.208 11.9135 106.689 11.724 106.313 11.3451C105.935 10.9663 105.748 10.4579 105.748 9.81994C105.748 9.19347 105.922 8.67185 106.274 8.25596C106.641 7.81188 107.137 7.58984 107.763 7.58984C108.376 7.58984 108.841 7.81188 109.156 8.25596C109.41 8.60841 109.535 9.04456 109.535 9.56265ZM108.632 9.32387C108.639 9.04984 108.576 8.81371 108.448 8.61458C108.284 8.35817 108.033 8.22953 107.694 8.22953C107.385 8.22953 107.133 8.35465 106.941 8.60576C106.783 8.80578 106.69 9.04456 106.66 9.32387H108.632Z" fill="#38496C"/>
</svg>
