<svg width="122" height="36" viewBox="0 0 122 36" fill="none" xmlns="http://www.w3.org/2000/svg">
<path d="M117.32 0.705933C119.409 0.705933 121.109 2.36573 121.109 4.4055V30.8388C121.109 32.8786 119.409 34.5384 117.32 34.5384H4.51231C2.42311 34.5384 0.723097 32.8786 0.723097 30.8388V4.4055C0.723097 2.36573 2.42311 0.705933 4.51231 0.705933H117.32ZM117.32 -5.5979e-05H4.51231C2.03167 -5.5979e-05 0 1.98355 0 4.4055V30.8388C0 33.2608 2.03167 35.2444 4.51231 35.2444H117.32C119.801 35.2444 121.832 33.2608 121.832 30.8388V4.4055C121.832 1.98355 119.801 -5.5979e-05 117.32 -5.5979e-05Z" fill="#38496C"/>
<path d="M42.7925 9.02588C42.7925 9.76161 42.5669 10.3509 42.1224 10.7903C41.6114 11.3113 40.9459 11.5734 40.1303 11.5734C39.3508 11.5734 38.6852 11.3069 38.1392 10.7815C37.5921 10.2484 37.3191 9.5942 37.3191 8.81111C37.3191 8.02802 37.5921 7.3738 38.1392 6.84513C38.6852 6.31536 39.3508 6.04883 40.1303 6.04883C40.5183 6.04883 40.8883 6.12703 41.2414 6.27241C41.5934 6.41889 41.8799 6.61714 42.0875 6.86165L41.6159 7.32644C41.2538 6.90901 40.7609 6.70305 40.1303 6.70305C39.5617 6.70305 39.0687 6.8969 38.6502 7.28789C38.2362 7.67998 38.0286 8.18773 38.0286 8.81111C38.0286 9.4345 38.2362 9.94664 38.6502 10.3387C39.0687 10.7253 39.5617 10.9236 40.1303 10.9236C40.7338 10.9236 41.2414 10.7253 41.6419 10.3343C41.9059 10.0755 42.0559 9.71866 42.0954 9.26268H40.1303V8.62608H42.7519C42.7835 8.76375 42.7925 8.89702 42.7925 9.02588Z" fill="#38496C" stroke="#38496C" stroke-width="0.16" stroke-miterlimit="10"/>
<path d="M46.9517 6.81864H44.4891V8.49275H46.7092V9.12935H44.4891V10.8035H46.9517V11.4522H43.792V6.16992H46.9517V6.81864Z" fill="#38496C" stroke="#38496C" stroke-width="0.16" stroke-miterlimit="10"/>
<path d="M49.8868 11.4522H49.1897V6.81864H47.6792V6.16992H51.3985V6.81864H49.8868V11.4522Z" fill="#38496C" stroke="#38496C" stroke-width="0.16" stroke-miterlimit="10"/>
<path d="M54.0901 11.4522V6.16992H54.7861V11.4522H54.0901Z" fill="#38496C" stroke="#38496C" stroke-width="0.16" stroke-miterlimit="10"/>
<path d="M57.8715 11.4522H57.1799V6.81864H55.6638V6.16992H59.3876V6.81864H57.8715V11.4522Z" fill="#38496C" stroke="#38496C" stroke-width="0.16" stroke-miterlimit="10"/>
<path d="M66.429 10.7727C65.8954 11.3069 65.2344 11.5734 64.4459 11.5734C63.6528 11.5734 62.9918 11.3069 62.4582 10.7727C61.9257 10.2396 61.6606 9.58539 61.6606 8.81111C61.6606 8.03684 61.9257 7.38261 62.4582 6.84954C62.9918 6.31536 63.6528 6.04883 64.4459 6.04883C65.2299 6.04883 65.8909 6.31536 66.4245 6.85394C66.9615 7.39142 67.2266 8.04124 67.2266 8.81111C67.2266 9.58539 66.9615 10.2396 66.429 10.7727ZM62.9737 10.3299C63.3753 10.7253 63.8638 10.9236 64.4459 10.9236C65.0234 10.9236 65.5164 10.7253 65.9135 10.3299C66.314 9.93453 66.517 9.42679 66.517 8.81111C66.517 8.19544 66.314 7.6877 65.9135 7.2923C65.5164 6.8969 65.0234 6.69865 64.4459 6.69865C63.8638 6.69865 63.3753 6.8969 62.9737 7.2923C62.5733 7.6877 62.3702 8.19544 62.3702 8.81111C62.3702 9.42679 62.5733 9.93453 62.9737 10.3299Z" fill="#38496C" stroke="#38496C" stroke-width="0.16" stroke-miterlimit="10"/>
<path d="M68.2046 11.4522V6.16992H69.0506L71.6813 10.2781H71.7118L71.6813 9.26262V6.16992H72.3774V11.4522H71.6509L68.8961 7.14135H68.8656L68.8961 8.16123V11.4522H68.2046Z" fill="#38496C" stroke="#38496C" stroke-width="0.16" stroke-miterlimit="10"/>
<path d="M61.4893 19.1664C59.3696 19.1664 57.638 20.7414 57.638 22.9145C57.638 25.0699 59.3696 26.6614 61.4893 26.6614C63.6135 26.6614 65.3451 25.0699 65.3451 22.9145C65.3451 20.7414 63.6135 19.1664 61.4893 19.1664ZM61.4893 25.1855C60.3262 25.1855 59.3256 24.2482 59.3256 22.9145C59.3256 21.5631 60.3262 20.6423 61.4893 20.6423C62.6523 20.6423 63.6575 21.5631 63.6575 22.9145C63.6575 24.2482 62.6523 25.1855 61.4893 25.1855ZM53.0863 19.1664C50.9621 19.1664 49.235 20.7414 49.235 22.9145C49.235 25.0699 50.9621 26.6614 53.0863 26.6614C55.2093 26.6614 56.9375 25.0699 56.9375 22.9145C56.9375 20.7414 55.2093 19.1664 53.0863 19.1664ZM53.0863 25.1855C51.9221 25.1855 50.9181 24.2482 50.9181 22.9145C50.9181 21.5631 51.9221 20.6423 53.0863 20.6423C54.2493 20.6423 55.2499 21.5631 55.2499 22.9145C55.2499 24.2482 54.2493 25.1855 53.0863 25.1855ZM43.087 20.3152V21.9078H46.9822C46.8683 22.7977 46.5637 23.4519 46.0967 23.9079C45.5281 24.4586 44.6426 25.0699 43.087 25.0699C40.6898 25.0699 38.8127 23.181 38.8127 20.8405C38.8127 18.5001 40.6898 16.6112 43.087 16.6112C44.3831 16.6112 45.3262 17.1057 46.0222 17.7467L47.1717 16.6244C46.1982 15.7169 44.9032 15.0197 43.087 15.0197C39.7998 15.0197 37.0371 17.6311 37.0371 20.8405C37.0371 24.05 39.7998 26.6614 43.087 26.6614C44.8637 26.6614 46.1982 26.0931 47.2473 25.0269C48.3224 23.9773 48.6574 22.5014 48.6574 21.3097C48.6574 20.9397 48.6258 20.5993 48.5694 20.3152H43.087ZM83.9752 21.5498C83.6583 20.7117 82.6802 19.1664 80.688 19.1664C78.7139 19.1664 77.0703 20.6852 77.0703 22.9145C77.0703 25.0137 78.697 26.6614 80.8775 26.6614C82.6407 26.6614 83.6583 25.6118 84.0768 25.0005L82.7682 24.1491C82.3316 24.7725 81.7371 25.1855 80.8775 25.1855C80.0236 25.1855 79.411 24.8033 79.0185 24.05L84.1524 21.9761L83.9752 21.5498ZM78.741 22.7977C78.697 21.3527 79.8905 20.6126 80.7456 20.6126C81.4156 20.6126 81.9842 20.9397 82.1737 21.4078L78.741 22.7977ZM74.5682 26.4334H76.2558V15.4195H74.5682V26.4334ZM71.8044 20.0013H71.748C71.369 19.5629 70.6459 19.1664 69.7299 19.1664C67.8077 19.1664 66.0501 20.8141 66.0501 22.9266C66.0501 25.0269 67.8077 26.6614 69.7299 26.6614C70.6459 26.6614 71.369 26.2616 71.748 25.81H71.8044V26.3475C71.8044 27.7804 71.0204 28.5503 69.7558 28.5503C68.7248 28.5503 68.0852 27.8233 67.8212 27.2121L66.3536 27.8101C66.7766 28.8036 67.8968 30.0261 69.7558 30.0261C71.7345 30.0261 73.404 28.8895 73.404 26.1239V19.3944H71.8044V20.0013ZM69.8743 25.1855C68.7112 25.1855 67.7377 24.235 67.7377 22.9266C67.7377 21.606 68.7112 20.6423 69.8743 20.6423C71.0204 20.6423 71.924 21.606 71.924 22.9266C71.924 24.235 71.0204 25.1855 69.8743 25.1855ZM91.8763 15.4195H87.84V26.4334H89.5231V22.2602H91.8763C93.7455 22.2602 95.5786 20.9397 95.5786 18.8393C95.5786 16.7401 93.741 15.4195 91.8763 15.4195ZM91.9203 20.7282H89.5231V16.9515H91.9203C93.177 16.9515 93.8944 17.9703 93.8944 18.8393C93.8944 19.6918 93.177 20.7282 91.9203 20.7282ZM102.325 19.1455C101.108 19.1455 99.8439 19.6698 99.3239 20.8317L100.817 21.443C101.139 20.8317 101.73 20.6335 102.355 20.6335C103.228 20.6335 104.114 21.1456 104.127 22.0499V22.1655C103.823 21.9937 103.171 21.7393 102.369 21.7393C100.76 21.7393 99.1208 22.6039 99.1208 24.2174C99.1208 25.6933 100.438 26.6438 101.92 26.6438C103.052 26.6438 103.677 26.1448 104.07 25.5644H104.127V26.4158H105.753V22.1908C105.753 20.2381 104.259 19.1455 102.325 19.1455ZM102.121 25.1811C101.571 25.1811 100.804 24.9146 100.804 24.2482C100.804 23.3958 101.761 23.0687 102.589 23.0687C103.33 23.0687 103.677 23.2284 104.127 23.4387C103.995 24.4586 103.096 25.1811 102.121 25.1811ZM111.675 19.3867L109.741 24.1612H109.683L107.683 19.3867H105.868L108.873 26.0589L107.158 29.7717H108.917L113.548 19.3867H111.675ZM96.5037 26.4334H98.1913V15.4195H96.5037V26.4334Z" fill="#38496C"/>
<path d="M9.41729 6.6424C9.1522 6.91334 8.99878 7.33517 8.99878 7.88146V27.3672C8.99878 27.9135 9.1522 28.3354 9.41729 28.6063L9.48272 28.6658L20.6665 17.751V17.4933L9.48272 6.57852L9.41729 6.6424Z" fill="url(#paint0_linear_316_1878)"/>
<path d="M24.39 21.3911L20.6663 17.751V17.4933L24.3946 13.8532L24.478 13.9006L28.8933 16.3534C30.1534 17.0494 30.1534 18.1949 28.8933 18.8954L24.478 21.3438L24.39 21.3911Z" fill="url(#paint1_linear_316_1878)"/>
<path d="M24.4782 21.3438L20.6664 17.6222L9.41724 28.6064C9.83575 29.0359 10.5182 29.0877 11.2944 28.6581L24.4782 21.3438Z" fill="url(#paint2_linear_316_1878)"/>
<path d="M24.4782 13.9005L11.2944 6.58616C10.5182 6.16102 9.83575 6.21278 9.41724 6.64232L20.6664 17.6221L24.4782 13.9005Z" fill="url(#paint3_linear_316_1878)"/>
<defs>
<linearGradient id="paint0_linear_316_1878" x1="19.6735" y1="27.5702" x2="4.89057" y2="12.429" gradientUnits="userSpaceOnUse">
<stop stop-color="#00A0FF"/>
<stop offset="0.0066" stop-color="#00A1FF"/>
<stop offset="0.2601" stop-color="#00BEFF"/>
<stop offset="0.5122" stop-color="#00D2FF"/>
<stop offset="0.7604" stop-color="#00DFFF"/>
<stop offset="1" stop-color="#00E3FF"/>
</linearGradient>
<linearGradient id="paint1_linear_316_1878" x1="30.5341" y1="17.6209" x2="8.69737" y2="17.6209" gradientUnits="userSpaceOnUse">
<stop stop-color="#FFE000"/>
<stop offset="0.4087" stop-color="#FFBD00"/>
<stop offset="0.7754" stop-color="#FFA500"/>
<stop offset="1" stop-color="#FF9C00"/>
</linearGradient>
<linearGradient id="paint2_linear_316_1878" x1="22.4055" y1="15.5991" x2="2.35862" y2="-4.93351" gradientUnits="userSpaceOnUse">
<stop stop-color="#FF3A44"/>
<stop offset="1" stop-color="#C31162"/>
</linearGradient>
<linearGradient id="paint3_linear_316_1878" x1="6.58558" y1="35.089" x2="15.5374" y2="25.9204" gradientUnits="userSpaceOnUse">
<stop stop-color="#32A071"/>
<stop offset="0.0685" stop-color="#2DA771"/>
<stop offset="0.4762" stop-color="#15CF74"/>
<stop offset="0.8009" stop-color="#06E775"/>
<stop offset="1" stop-color="#00F076"/>
</linearGradient>
</defs>
</svg>
