<svg width="100" height="100" viewBox="0 0 100 100" fill="none" xmlns="http://www.w3.org/2000/svg">
<circle cx="50" cy="50" r="50" fill="white"/>
<g clip-path="url(#clip0_197_4738)">
<path d="M30.4847 74.0586C29.7354 73.8127 29.0564 73.4615 28.6115 72.759C27.5461 71.0849 28.4944 68.8839 30.4495 68.5093C30.7422 68.4507 31.0349 68.4507 31.3276 68.4507C35.5071 68.4507 39.6749 68.4507 43.8544 68.4507C44.03 68.4507 44.1939 68.4507 44.3344 68.4507C43.9364 68.2049 43.4681 68.0059 43.1051 67.7015C42.1803 66.9054 41.9461 65.6293 42.4495 64.5054C43.5149 62.1171 44.5803 59.7288 45.6456 57.3522C45.7042 57.2117 45.7627 57.0712 45.8447 56.8956C45.6925 56.7903 45.5637 56.6966 45.4232 56.6029C43.4681 55.3034 41.5129 53.9922 39.5578 52.6927C37.9305 51.6156 37.5793 50.2927 38.4339 48.56C40.2017 45.0127 41.9812 41.4654 43.7608 37.9181C44.2993 36.8293 45.1305 36.162 46.3832 36.1386C47.2495 36.1151 47.9403 36.5132 48.5373 37.1103C49.9773 38.5503 51.429 39.9903 52.8573 41.442C53.0681 41.6644 53.2905 41.7464 53.5949 41.7464C54.9295 41.7347 56.2759 41.7229 57.6105 41.7464C58.8866 41.7698 59.9168 42.5542 60.2798 43.7132C60.631 44.8371 60.233 46.0664 59.273 46.7922C58.7695 47.1668 58.1959 47.3425 57.5754 47.3425C55.7373 47.3425 53.8993 47.3425 52.0612 47.3425C51.1832 47.3425 50.469 46.9795 49.8603 46.359C48.9822 45.4693 48.1042 44.5912 47.1676 43.6664C46.6993 44.6146 46.2427 45.5161 45.7861 46.4293C45.3295 47.3307 44.8847 48.2322 44.4047 49.1805C44.5451 49.2742 44.6856 49.3795 44.8144 49.4732C46.711 50.7376 48.5959 51.9903 50.4925 53.2547C51.9676 54.2381 52.3422 55.5025 51.6515 57.1298C50.3637 60.1503 49.0876 63.1707 47.7998 66.1912C47.1793 67.6429 46.9803 67.8537 45.5871 68.4625C51.0895 68.4625 56.5686 68.4625 62.071 68.4625C63.4759 61.3327 64.8808 54.2029 66.309 46.9912C65.4895 47.5298 64.7637 48.0332 64.0144 48.5015C63.1129 49.0634 62.0359 48.6186 61.8486 47.6C61.7315 46.9795 61.989 46.4995 62.4925 46.16C63.2183 45.6683 63.9442 45.1883 64.67 44.7083C66.6603 43.3737 68.6622 42.0507 70.6525 40.7161C71.0388 40.4586 71.4369 40.2712 71.9169 40.3766C72.4788 40.5171 72.8651 40.8683 72.9822 41.4303C73.111 42.0273 72.9237 42.5425 72.4086 42.9054C71.589 43.4673 70.7461 44.0059 69.9266 44.5795C69.751 44.7083 69.5871 44.9425 69.5403 45.1532C68.1939 51.8966 66.8593 58.64 65.5247 65.3834C65.349 66.2498 65.1734 67.1278 65.0095 67.9942C64.9861 68.1464 64.9627 68.2986 64.9393 68.4859C65.8056 68.4859 66.6251 68.4625 67.4564 68.4859C69.6573 68.5678 70.9217 70.8625 69.8095 72.7356C69.3647 73.4849 68.6622 73.8478 67.8661 74.082C55.4212 74.0586 42.9529 74.0586 30.4847 74.0586Z" fill="#448AFF"/>
<path d="M40.6339 56.7669C40.271 57.6215 39.6622 58.1483 38.8193 58.4293C36.0798 59.3425 33.3403 60.2674 30.589 61.1571C29.313 61.5669 28.1071 61.1923 27.3812 60.1971C26.6554 59.202 26.632 57.9376 27.3227 56.9308C27.6973 56.3805 28.2242 56.041 28.8447 55.8303C31.1978 55.0459 33.5627 54.2615 35.9159 53.4888C36.0447 53.442 36.2905 53.4654 36.349 53.5474C37.0866 54.5542 38.1871 55.1162 39.1822 55.8069C39.6739 56.1347 40.1539 56.4391 40.6339 56.7669Z" fill="#448AFF"/>
<path d="M41.57 36.1034C41.1954 36.8293 40.8559 37.4732 40.5281 38.1171C39.9778 39.1942 39.451 40.283 38.889 41.36C38.7954 41.5356 38.6432 41.723 38.4676 41.8166C36.8988 42.6127 35.3417 43.4205 33.7612 44.1815C31.7008 45.1649 29.5349 43.7483 29.6637 41.5122C29.7105 40.599 30.1203 39.8381 30.9164 39.3932C31.9934 38.7844 33.1173 38.2342 34.2295 37.6839C38.1515 35.7522 36.5944 36.1386 40.9261 36.1034C41.1017 36.1034 41.289 36.1034 41.57 36.1034Z" fill="#448AFF"/>
<path d="M50.6429 26.1873C52.9024 26.1639 54.8575 28.1425 54.8809 30.4722C54.8926 32.7434 52.9961 34.6517 50.7014 34.6869C48.4185 34.7103 46.5102 32.8254 46.4751 30.519C46.44 28.2127 48.36 26.2225 50.6429 26.1873Z" fill="#448AFF"/>
</g>
<defs>
<clipPath id="clip0_197_4738">
<rect width="48" height="48.1171" fill="white" transform="translate(26 26)"/>
</clipPath>
</defs>
</svg>
