<svg width="100" height="100" viewBox="0 0 100 100" fill="none" xmlns="http://www.w3.org/2000/svg">
<circle cx="50" cy="50" r="50" fill="white"/>
<g clip-path="url(#clip0_197_4797)">
<path d="M48.7365 74.1124C48.6615 73.8499 48.474 73.5624 48.524 73.3374C48.599 72.9749 48.9865 72.9999 49.299 72.9999C50.9115 72.9999 52.5365 72.9999 54.149 72.9999C55.499 72.9999 56.274 72.3124 56.424 70.9874C56.474 70.6124 56.6115 70.3499 57.0365 70.3749C57.449 70.3999 57.549 70.6874 57.549 71.0624C57.524 72.4124 56.5365 73.6374 55.174 74.0124C55.0615 74.0499 54.949 74.0874 54.8365 74.1249C52.7865 74.1124 50.7615 74.1124 48.7365 74.1124Z" fill="#448AFF"/>
<path d="M54.0871 67.0375C52.6746 67.0375 51.3121 67.0375 49.8996 67.0375C49.9621 66.2125 50.0121 65.3875 50.0746 64.55C50.1871 63.15 50.3746 61.75 50.3871 60.35C50.3996 59.4625 50.1746 58.5625 50.0246 57.675C49.7996 56.4 49.5496 55.1375 49.2871 53.875C49.2371 53.6125 49.1121 53.3375 48.9621 53.1125C48.3996 52.2875 47.8246 51.475 47.2121 50.6875C47.0871 50.5125 46.8246 50.375 46.6121 50.35C44.4871 50.175 42.3496 50.0375 40.2246 49.85C39.8371 49.8125 39.4121 49.675 39.0996 49.4625C37.2371 48.175 35.4121 46.8625 33.5621 45.55C33.5121 45.5125 33.4746 45.4625 33.4121 45.4125C34.3496 44.375 35.2746 43.35 36.2371 42.2875C37.0746 42.875 37.8996 43.4625 38.7246 44.0375C39.4121 44.525 40.0871 45.025 40.7871 45.4875C40.9871 45.6125 41.2371 45.7 41.4746 45.725C43.0371 45.8625 44.6121 45.9625 46.1871 46.1C46.6246 46.1375 46.9871 46.05 47.3746 45.8125C49.8121 44.2875 52.2746 42.775 54.7246 41.2625C54.8496 41.1875 54.9871 41.1125 55.1996 41C55.3871 41.25 55.5746 41.5 55.7621 41.75C55.7996 41.725 55.8496 41.6875 55.8871 41.6625C55.8371 41.55 55.7996 41.4375 55.7371 41.325C54.9371 39.825 54.1996 38.3 53.3246 36.85C52.6996 35.8125 52.5246 34.7875 52.6996 33.6C52.9746 31.6875 53.1371 29.7625 53.3496 27.8375C53.4621 26.8125 54.2746 26.1125 55.2496 26.1875C56.2121 26.275 56.9121 27.075 56.8246 28.1C56.6371 30.0875 56.3996 32.0625 56.2121 34.05C56.1871 34.375 56.2371 34.775 56.3996 35.0625C58.1996 38.375 60.0246 41.675 61.8496 44.9625C61.9871 45.2 62.2246 45.4125 62.4621 45.55C63.1121 45.9125 63.8121 46.1875 64.4621 46.55C65.1121 46.9125 65.7871 47.0375 66.5121 47.05C68.2871 47.075 70.0621 47.15 71.8371 47.2125C72.9621 47.25 73.6871 48 73.6496 49.0375C73.6121 50.0375 72.8246 50.725 71.7246 50.7C69.4746 50.6375 67.2371 50.575 64.9996 50.4875C64.6871 50.475 64.3496 50.3625 64.0621 50.2375C62.9871 49.7375 61.9371 49.2 60.8621 48.7125C60.6996 48.6375 60.4371 48.65 60.2871 48.7375C58.0996 50.025 55.9246 51.3375 53.7371 52.625C53.4746 52.775 53.4121 52.9375 53.4621 53.225C53.8496 55.2125 54.2871 57.1875 54.5871 59.1875C54.7121 60.0375 54.5871 60.925 54.5371 61.7875C54.4371 63.3875 54.2996 64.9875 54.1746 66.5875C54.1371 66.725 54.1121 66.8375 54.0871 67.0375Z" fill="#448AFF"/>
<path d="M64.5234 44.65C62.5109 44.65 60.8984 43.05 60.8984 41.0375C60.8984 39 62.5109 37.4 64.5484 37.4C66.5484 37.4125 68.1734 39.0375 68.1609 41.0375C68.1484 43.05 66.5359 44.65 64.5234 44.65Z" fill="#448AFF"/>
<path d="M32.4371 44.7376C32.3246 44.6626 32.2246 44.6126 32.1371 44.5501C31.6621 44.1626 31.2371 43.9251 30.5371 44.2001C29.7746 44.5001 28.9996 44.1876 28.4496 43.5251C27.9621 42.9501 28.0496 42.1876 28.6746 41.7751C29.6871 41.1001 30.7246 40.4626 31.7496 39.8251C32.1371 39.5876 32.5246 39.6126 32.8871 39.8751C33.6746 40.4376 34.4496 41.0126 35.2621 41.6126C34.3121 42.6626 33.3746 43.7001 32.4371 44.7376Z" fill="#448AFF"/>
<path d="M49.7872 68.275C51.2122 68.275 52.5872 68.275 54.0122 68.275C53.8122 68.8625 54.1247 69.1625 54.6122 69.45C55.1247 69.7625 55.3622 70.3 55.3997 70.9125C55.4497 71.6375 55.0122 72.1875 54.2997 72.2C53.0247 72.2375 51.7497 72.225 50.4747 72.2C49.9122 72.1875 49.5622 71.7625 49.5872 71.15C49.6247 70.225 49.7122 69.3 49.7872 68.275Z" fill="#448AFF"/>
<path d="M26.2617 43.0875C26.3117 41.7 26.7367 40.7875 27.6617 40.1875C29.1742 39.2 30.7242 38.275 32.2617 37.325C32.5867 37.125 32.8992 37.1125 33.1117 37.4625C33.3367 37.825 33.1492 38.0875 32.8367 38.275C31.4117 39.1625 29.9742 40.05 28.5492 40.9375C27.4117 41.6375 27.1117 42.6375 27.6867 43.8625C27.8367 44.1875 27.8367 44.4875 27.4992 44.675C27.1492 44.875 26.8367 44.725 26.6992 44.375C26.4867 43.875 26.3492 43.35 26.2617 43.0875Z" fill="#448AFF"/>
</g>
<defs>
<clipPath id="clip0_197_4797">
<rect width="48" height="48.125" fill="white" transform="translate(26 26)"/>
</clipPath>
</defs>
</svg>
