<svg width="100" height="100" viewBox="0 0 100 100" fill="none" xmlns="http://www.w3.org/2000/svg">
<circle cx="50" cy="50" r="50" fill="white"/>
<path d="M39.7133 52.375C38.6133 51.575 37.5633 50.8125 36.4883 50.025C37.7258 48.3125 38.9758 46.6375 40.1758 44.925C40.7758 44.075 41.4633 43.3625 42.3258 42.7625C44.0008 41.6 45.6883 40.4375 47.2758 39.1625C49.5883 37.2875 52.8883 38.325 54.2633 40.4625C54.5508 40.9125 54.8133 41.4125 54.9633 41.925C55.9133 45.1625 58.2883 46.8625 61.3383 47.7875C62.1508 48.0375 63.0133 48.0875 63.9008 48.2375C63.9008 49.4875 63.9008 50.7875 63.9008 52.15C59.5758 52.05 56.0383 50.375 53.1508 47.0875C53.0258 47.75 52.9258 48.35 52.8133 48.95C52.4758 50.8375 52.1508 52.725 51.8133 54.6125C51.7633 54.8875 51.8383 55.0375 52.0383 55.2C53.2258 56.1875 54.4133 57.175 55.5883 58.175C55.7508 58.3125 55.8883 58.5 55.9633 58.6875C57.3883 62.5625 58.7883 66.4375 60.2008 70.3125C60.2258 70.4 60.2508 70.4875 60.2758 70.6125C59.0383 71.0625 57.8133 71.5125 56.5633 71.9625C56.1383 70.8125 55.7258 69.6875 55.3133 68.5625C54.4258 66.125 53.5508 63.675 52.6383 61.2375C52.5258 60.95 52.3258 60.6625 52.0883 60.4625C49.9883 58.675 47.8633 56.9125 45.7508 55.1375C44.5133 54.1 44.0258 52.775 44.3008 51.175C44.6133 49.4 44.9258 47.6125 45.2383 45.8375C45.2508 45.775 45.2508 45.7125 45.2633 45.4875C44.6883 45.9875 44.1133 46.3375 43.7383 46.825C42.3883 48.6375 41.0883 50.4875 39.7133 52.375Z" fill="#448AFF"/>
<path d="M40.6016 71.1376C39.5641 70.2751 38.5641 69.4376 37.5391 68.5751C38.4266 67.5126 39.2891 66.4876 40.1516 65.4626C41.1891 64.2376 42.2266 63.0126 43.2516 61.7751C43.4016 61.5876 43.5266 61.3626 43.6016 61.1251C44.0641 59.8251 44.5016 58.5126 44.9766 57.1376C46.1891 58.1501 47.3516 59.1251 48.5641 60.1376C47.7641 61.5626 47.3641 63.1626 46.2516 64.4251C44.3391 66.6126 42.5141 68.8626 40.6016 71.1376Z" fill="#448AFF"/>
<path d="M52.9256 37.1625C50.7256 37.15 48.9381 35.3375 48.9631 33.1625C48.9881 30.95 50.8006 29.1625 53.0131 29.1875C55.1756 29.2125 56.9506 31 56.9506 33.175C56.9631 35.3875 55.1506 37.1875 52.9256 37.1625Z" fill="#448AFF"/>
</svg>
